<svg width="240.02mm" height="256.84mm" version="1.1" viewBox="0 0 240.02 256.84" xmlns="http://www.w3.org/2000/svg"><g transform="translate(10.956 -21.453)"><path d="m124.84 233.14-20.142 12.467-20.142-12.467c-41.189-25.501-66.253-70.492-66.253-118.93v-57.844l86.395-32.912 86.395 32.912v57.844c0 48.443-25.064 93.433-66.253 118.93z" fill="none" stroke="#000" stroke-linecap="round" stroke-linejoin="round" stroke-miterlimit="10" stroke-width="4"/><path d="m32.552 62.285 72.15-25.465 72.15 25.465v56.088c0 48.661-28.104 92.949-72.133 113.67l-0.0182 6e-3 -0.0181-6e-3c-44.029-20.72-72.132-65.008-72.132-113.67z" fill="none" stroke="#000" stroke-linecap="round" stroke-linejoin="round" stroke-miterlimit="10" stroke-width="4.126"/><path d="m76.497 158.21h5.0643l9.4464 30.861h-4.3201l-2.2738-8.0408h-10.811l-2.2324 8.0408h-4.3201zm6.9246 19.472-4.4028-15.792-4.4028 15.792zm26.446-0.28939h-15.565v-3.514h15.565l-5.4157-5.4157h4.6922l7.1727 7.1727-7.1727 7.1727h-4.6922zm12.411-19.182h9.1364q4.7129 0 7.2967 2.0464 2.5632 2.0464 2.5632 5.8084 0 1.4469-0.3514 2.5632-0.3514 1.0955-0.99219 1.881-0.66146 0.78548-1.6743 1.3229-1.0129 0.51677-2.3978 0.72347 3.0592 0.45475 4.7749 2.5838t1.7157 5.4777q0 4.1754-2.7492 6.3045-2.7698 2.1497-8.1855 2.1497h-9.1364zm9.0537 12.733q3.0592 0 4.3822-1.1782 1.3436-1.1576 1.3436-3.6587 0-2.4185-1.3229-3.4313-1.3436-1.0335-4.4028-1.0335h-4.8576v9.3018zm0.0827 14.697q3.5967 0 5.1883-1.2816 1.5503-1.2816 1.5503-4.1754 0-3.0179-1.633-4.4442-1.6536-1.4056-5.1056-1.4056h-4.9403v11.307z" stroke-width=".265" aria-label="A➔B"/><g transform="matrix(.7292 0 0 .7292 -9.5327 -11.525)" fill="none" stroke="#000" stroke-linejoin="round" stroke-miterlimit="10"><g stroke-width="1.6456"><path d="m111.68 186.95h-30.445c4.0527-11.405-5.0796-37.839-5.0796-37.839-4.6288-12.024-3.8135-28.613 14.035-35.4 22.167-8.4296 34.31 4.9008 34.31 4.9008s5.8445 6.0332 5.6554 18.475c0 0-2.262 5.2786 0 9.803l4.5251 5.938s3.6756 4.808-3.8442 5.7502c0 0-0.58632 1.1307 0.16828 3.4877 0 0-0.28328 1.979-1.9798 2.3564 0 0 0.84843 0.65941 0.56585 1.9792 0 0-1.3201 1.2252-1.4146 1.9794 0 0 0.12277 5.9514-0.5655 7.0698-0.75389 1.225-5.3724 6.3154-19.322 1.225 0 0 0.47131 6.9752 3.3927 10.274z"/><path d="m74.22 131.16h16.161v4.016"/><path d="m73.937 140.62h24.307v-6.7197"/><path d="m76.231 148.34h12.811"/><path d="m95.385 112.07v6.2593"/><path d="m97.946 111.52v4.1737h5.5316"/><path d="m113.52 111.97v7.6609h-4.7762"/><path d="m118.06 114.17v9.9007h-6.3493"/><path d="m90.477 113.6v7.5537h-3.2124"/><path d="m120.84 115.73v8.5336h2.2925"/></g><g stroke-width="1.3714"><path d="m91.211 148.46c0 0.59831-0.48507 1.0837-1.0841 1.0837-0.59866 0-1.0844-0.48542-1.0844-1.0837 0-0.59937 0.48578-1.0844 1.0844-1.0844 0.59902 0 1.0841 0.48507 1.0841 1.0844z"/><path d="m92.964 161.19c0 0.59835-0.48507 1.0834-1.0837 1.0834-0.59796 0-1.0844-0.48507-1.0844-1.0834 0-0.59902 0.48648-1.0841 1.0844-1.0841 0.59866 0 1.0837 0.48507 1.0837 1.0841z"/><path d="m85.71 162.25c0 0.59891-0.48436 1.0844-1.0837 1.0844-0.59902 0-1.0848-0.48549-1.0848-1.0844 0-0.59873 0.48578-1.0841 1.0848-1.0841 0.59937 0 1.0837 0.48536 1.0837 1.0841z"/><path d="m96.772 173.33c0 0.59835-0.48507 1.0837-1.0844 1.0837-0.59866 0-1.0837-0.48531-1.0837-1.0837 0-0.59877 0.48507-1.0846 1.0837-1.0846 0.59937 0 1.0844 0.48578 1.0844 1.0846z"/><path d="m101.18 169.27c0 0.59877-0.48507 1.0841-1.0837 1.0841-0.59796 0-1.0837-0.48532-1.0837-1.0841 0-0.59891 0.48578-1.0837 1.0837-1.0837 0.59866 0 1.0837 0.48479 1.0837 1.0837z"/><path d="m108.49 172.79c0 0.59863-0.48507 1.0837-1.0837 1.0837-0.59867 0-1.0844-0.48507-1.0844-1.0837 0-0.59902 0.48577-1.0841 1.0844-1.0841 0.59866 0 1.0837 0.48507 1.0837 1.0841z"/><path d="m91.38 136.23c0 0.59867-0.48507 1.0837-1.0841 1.0837-0.59866 0-1.0844-0.48506-1.0844-1.0837 0-0.59831 0.48578-1.0837 1.0844-1.0837 0.59902 0 1.0841 0.48542 1.0841 1.0837z"/><path d="m99.371 132.84c0 0.59866-0.48507 1.0837-1.0834 1.0837-0.59937 0-1.0851-0.48507-1.0851-1.0837s0.48578-1.0841 1.0851-1.0841c0.59831 0 1.0834 0.48543 1.0834 1.0841z"/><path d="m87.265 121.16c0 0.59866-0.48507 1.0841-1.0837 1.0841-0.59866 0-1.0837-0.48542-1.0837-1.0841 0-0.59832 0.48507-1.0841 1.0837-1.0841 0.59866 0 1.0837 0.48577 1.0837 1.0841z"/><path d="m96.267 119.18c0 0.59867-0.48507 1.0841-1.0841 1.0841-0.59866 0-1.0844-0.48542-1.0844-1.0841 0-0.59901 0.48578-1.0841 1.0844-1.0841 0.59902 0 1.0841 0.48507 1.0841 1.0841z"/><path d="m105.65 115.69c0 0.59901-0.48507 1.0837-1.0841 1.0837-0.59796 0-1.0837-0.48472-1.0837-1.0837 0-0.59867 0.48578-1.0837 1.0837-1.0837 0.59901 0 1.0841 0.48507 1.0841 1.0837z"/><path d="m108.49 119.52c0 0.59867-0.48507 1.0841-1.0841 1.0841-0.59866 0-1.0844-0.48542-1.0844-1.0841 0-0.59901 0.48578-1.0841 1.0844-1.0841 0.59902 0 1.0841 0.48507 1.0841 1.0841z"/><path d="m111.98 124.07c0 0.59902-0.48578 1.0841-1.0837 1.0841-0.59867 0-1.0844-0.48507-1.0844-1.0841 0-0.59831 0.48577-1.0837 1.0844-1.0837 0.59795 0 1.0837 0.48542 1.0837 1.0837z"/><path d="m125.48 124.37c0 0.59831-0.48507 1.0841-1.0844 1.0841-0.59831 0-1.0841-0.48578-1.0841-1.0841 0-0.59866 0.48577-1.0844 1.0841-1.0844 0.59937 0 1.0844 0.48578 1.0844 1.0844z"/><path d="m116.73 132.58c0 0.59866-0.48507 1.0841-1.0834 1.0841-0.59937 0-1.0844-0.48543-1.0844-1.0841s0.48507-1.0841 1.0844-1.0841c0.59831 0 1.0834 0.48543 1.0834 1.0841z"/><path d="m120.36 137.58c0 0.59867-0.48507 1.0844-1.0837 1.0844-0.59795 0-1.0844-0.48577-1.0844-1.0844 0-0.59866 0.48648-1.0841 1.0844-1.0841 0.59867 0 1.0837 0.48542 1.0837 1.0841z"/><path d="m117.22 147.41c0 0.59866-0.48506 1.0844-1.0837 1.0844-0.59902 0-1.0841-0.48578-1.0841-1.0844s0.48506-1.0841 1.0841-1.0841c0.59867 0 1.0837 0.48543 1.0837 1.0841z"/><path d="m108.92 151.02c0 0.59831-0.48577 1.0837-1.0841 1.0837-0.59867 0-1.0844-0.48542-1.0844-1.0837 0-0.59902 0.48577-1.0848 1.0844-1.0848 0.59831 0 1.0841 0.48577 1.0841 1.0848z"/><path d="m113.49 155.66c0 0.59902-0.48578 1.0841-1.0837 1.0841-0.59867 0-1.0844-0.48507-1.0844-1.0841 0-0.59831 0.48577-1.0844 1.0844-1.0844 0.59795 0 1.0837 0.48613 1.0837 1.0844z"/><path d="m108.17 164.42c0 0.59835-0.48578 1.0834-1.0844 1.0834-0.59796 0-1.0837-0.48507-1.0837-1.0834 0-0.59902 0.48577-1.0841 1.0837-1.0841 0.59866 0 1.0844 0.48507 1.0844 1.0841z"/></g><path d="m118.77 173.56c0 0.59863-0.48507 1.0837-1.0837 1.0837s-1.0844-0.48507-1.0844-1.0837c0-0.59873 0.48578-1.0841 1.0844-1.0841s1.0837 0.48535 1.0837 1.0841z" stroke-width="1.3714"/><g stroke-width="1.6456"><path d="m128.94 128.06h-13.309v3.4031"/><path d="m129.46 137.58h-9.1186"/><path d="m116.14 146.32v-4.6634h13.026"/><path d="m108.92 151.02h23.92"/><path d="m112.32 156.85v3.6264h18.323"/><path d="m108.17 164.42h20.854"/></g><path d="m118.74 173.56h8.9602" stroke-width="1.6456"/><g stroke-width="1.6456"><path d="m84.626 186.95v-23.611"/><path d="m87.775 186.99v-13.695h6.3523"/><path d="m100.1 186.85v-16.801"/><path d="m103.96 186.84v-14.044h2.45"/><path d="m77.762 153.38h14.27v6.514"/></g></g><path d="m158.92 112.07h1.3022q0 5.7154-1.881 8.3199-1.8448 2.6045-4.6302 2.6045-2.2789 0-4.377-1.7002-2.0981-1.7363-3.762-9.2242l-3.1109-14.035-10.78 24.453h-6.8368l15.482-33.352q-1.2299-6.4751-2.9662-9.586-1.7363-3.1109-4.3046-3.1109-2.0619 0-3.6174 1.5916-1.5193 1.5555-1.7002 4.8472h-1.3022q0.10852-5.3175 2.1342-8.5008 2.0257-3.2194 5.0643-3.2194 1.9534 0 3.6897 1.6278 1.7725 1.5916 3.0386 5.4984 1.3022 3.8706 4.0152 16.097l2.5683 11.467q1.5555 7.1262 3.2556 9.5498 1.7363 2.3874 4.1238 2.3874 4.0514 0 4.594-5.7154z" stroke="#000" stroke-width=".265" aria-label="λ"/><g fill="none" stroke="#000"><path d="m104.7 50.153v80.711" stroke-width="1.5"/><path d="m101.22 133.91-56.802 15.22" stroke-width="1.6096"/><path d="m108.3 133.91 56.802 15.22" stroke-width="1.6096"/></g><text x="64.198067" y="210.43259" fill="#000000" font-size="3.175px" stroke="#808080" stroke-width=".043" xml:space="preserve"><tspan x="64.198067" y="210.43259" stroke-width=".043"/></text><g transform="translate(11.705 -.16271)"><g transform="matrix(1.189 0 0 -.99994 -28.813 477.35)"><path d="m180.63 256.61c-1.2026 0.88016-2.7043 0.43878-4.4776 0.7096-3.3787 0.5156-6.7783 2.2494-9.7295 1.2156-1.8558-0.65057-3.8171-2.5663-3.811-4.9125 7e-3 -2.335 1.6141-3.8292 1.46-6.7761-5.567 1.5963-13.476 5.0366-18.658 0.88797-2.9525-5.5917 1.6531-10.335 1.605-16.484-9.8493-5.1208-23.172-5.2441-36.634-4.8196-14.943 0.4735-30.908-0.37064-45.091 2.0476-1.1874 6.2024 1.3472 10.423 3.2841 14.227-1.674 7.619-12.767 6.8668-20.469 5.1334 0.78295 2.7017 3.7081 4.4659 3.5797 7.4332-0.04644 1.0759-1.1814 3.0966-2.3879 3.8492-2.6535 1.6536-10.274 2.8879-14.395 1.5333-2.3992-0.78772-4.1669-2.5689-6.1651-3.3935-2.9491-1.217-7.07-1.8081-10.662-1.3242-2.0022 0.26995-4.6856 0.49998-6.8193 1.4518-1.9266 0.8615-2.4123 2.7264-3.3703 4.6122-0.83412 0.22872-1.5726 0.0803-2.3272-0.22916-0.68292-1.3862-0.29465-3.2507 0.26122-4.4633 1.2812-2.7985 4.6215-6.3959 7.4909-7.4636 3.7623-1.3992 8.6446-0.34634 11.506-3.1296-1.4969-0.87192-4.4529-0.35241-6.782-1.072-0.8148-0.25172-2.9189-1.5398-4.0425-2.3914-2.5915-1.9639-7.8457-5.8895-2.7998-7.6151 0.59333 0.18792 0.31921 1.2208 0.75356 1.5646 2.1826 1.4023 3.7399 2.9013 6.1668 3.1986 3.2468 0.39756 5.6859-2.371 8.5902-2.979 2.3133-0.48479 4.4755-0.12414 6.3964 0.87234-1.3459 0.94614-3.3575-0.0994-5.245 0.11626-2.6309 0.29904-4.6569 1.9895-6.4519 2.8158 0.38323 0.52298 1.2968 0.52863 1.7334 0.99821-1.335 0.21701-3.4386 0.41969-4.4722 0.32117-0.63287 0.38453 0.876 0.27993 0.76576 0.78772 0.20485 0.93484-0.751 0.67315-0.98888 1.1514 2.5517 0.45657 5.3059 0.71914 7.9469 1.0894-0.13801 2.552-1.8979 3.4343-4.1356 3.8232 0.89145 0.60196 2.0377 0.95568 3.2837 1.2126-4.2789 0.78729-11.221 0.40492-14.421 3.2828-0.61407 0.21223-0.4669-0.31249-0.76984-0.40016-1.6765 1.828-4.1692 3.844-3.6055 7.3265 1.0137 0.0123 0.87669-1.6037 0.61694-2.3215 1.5944-1.3802 3.7982-2.1332 5.6801-3.2164 0.88498-0.22916-0.32603-0.57029 0.20871-0.96871 1.2012-0.20876 1.9951-0.83676 3.3159-0.92139-1.2018-0.52037-3.7364 0.83763-5.2633 1.2803 1.3064-1.7434 3.786-2.2759 6.6398-2.4257 0.12408 0.72089-0.31956 0.85369-0.98263 0.76211 0.11428 0.46353 1.1957-0.0125 1.3534 0.40927-0.15477 0.49781-0.62966 0.6649-1.3675 0.56204 0.69493 0.57549 1.8881-0.46309 1.93 0.80465 5.5722-0.4275 10.588 1.3306 14.126 3.5133 0.59025 0.14843 0.71003-0.18749 1.167-0.17707 0.07855 2.0285 4.86 2.0173 7.3625 1.2751-1.4322-0.58895-3.7129-0.35241-5.2319-0.85542 1.4014-0.0812 5.1399-0.78035 5.6221 0.66706 2.5472-1.3854 6.2532-1.5768 7.6368-4.1591 0.42316-0.38063-0.69094-1.003 0.2144-1.3558-4.3375-2.0338-9.5043 2.6609-14.58 0.947-1.4327-0.48305-2.0051-1.9357-3.4543-2.7703 0.05078-2.2008-0.83459-5.498-0.45874-8.3581 0.46395-3.5289 3.985-5.7063 3.8396-10.042-0.0369-1.0993-0.66707-1.9561-0.73304-2.9248-0.21527-3.1648 2.5641-7.5738 5.1634-7.6914 1.4973-0.0682 3.2438 1.2482 5.2237 1.437 2.6978 0.25694 5.005-0.34286 7.9644-0.0755 2.0724-5.1629 0.40883-10.647-0.94049-15.163 2.0021-2.2846 3.9842-2.742 7.4337-3.5801 10.492-2.5476 20.683-4.5653 31.743-5.7419 1.5872-0.16795 3.2381 0.0781 4.8583-0.12192 9.7399-1.1961 20.066-0.7838 28.145 1.0017 2.7225 0.60197 5.2254 1.5234 7.9297 2.2547 8.174 2.2104 16.939 2.3983 22.432 6.5504 0.0156 0.26301 0.45571 0.45397 0.57028 0.78468 0.44052 1.2612-0.60284 2.1883-1.0173 3.0923-0.29078 0.63582-0.49129 1.8063-0.61889 2.5155-0.37237 2.0689 0.23828 3.9477 0.30771 5.4424 0.0356 0.7786-0.81203 2.3493-0.0495 3.3015 6.672 3.2798 16.695-5.251 23.891-0.22785 1.9174 3.4338 2.5763 8.0907 4.097 11.91 5.6673 1.0677 9.9231 3.5081 14.875 5.2706 2.1757-0.12499 3.6062-1.0178 4.6955-2.2612 1.7751 1.6067 0.1276 4.0688-0.84588 4.6486-3.4495 2.0568-11.818-1.2391-12.865 3.111 0.28428 0.61803 1.2087 0.61412 2.1275 0.61455 2.6744 1.1592 4.8248 2.3692 7.112 4.9602 1.999 2.2655 3.532 5.656 6.7154 5.5388 1.6866-0.0616 1.8762-1.1163 3.3267-1.6983 0.78034 0.97478 0.11367 2.7099-0.2487 3.6873-3.742 1.2426-10.082 0.64928-9.6575-3.6409-4.6773-2.8961-12.774-1.5902-18.255-0.0773 0.21396 0.77557 1.2183-0.0712 2.1336 0.22568zm-32.599-41.077c1.2768 0.93007 2.6145 1.7994 4.041 2.5845-0.19965-1.0429-7e-3 -0.89882 0.2196-1.7447-0.35805-0.8641-1.5104-0.95829-1.9157-1.7764 0.93702 0.0469 1.0295 0.91401 2.1236 0.80942-0.61976-1.7586-3.0441-1.7655-4.0306-3.1687 1.8159-0.64667 2.5051 1.3719 4.0536 1.6145 0.14582-1.0338 0.84197-1.4995 0.8168-2.7065-0.94526-1.3971-2.7269-3.0849-4.6248-2.4-0.30728-0.148 0.0594-0.94961-0.57116-0.78555-1.4856-0.53253-2.7616-0.71915-4.4486-1.2317-3.7264-1.1306-9.2001-3.4052-11.998-2.897-1.1848 0.2157-1.595 1.802-2.9352 1.5099 0.20224-1.0399 1.6171-0.83157 1.7755-1.9153-1.2178-0.13845-1.3068 0.88624-2.3445 0.93572-0.0842-0.61282 0.60284-0.43054 0.40493-1.1592-3.8974-0.3624-7.678-0.83894-11.438-1.3363-0.6623 0.31509-1.2556 1.6301-1.953 0.74867 0.14539-0.57463 1.121-0.29166 1.1796-0.95439-3.7489-0.26691-8.1077-0.91142-11.839-0.5642-0.36978 0.60457-0.40753 1.5511-0.99952 1.9274-0.94744-0.16665 0.63539-1.1848-0.16752-1.7508-0.75518 0.47132-1.279 1.1809-2.3497 1.3241-0.42707-0.49693 0.43443-0.86106 0.40969-1.5476-1.4227 0.20441-2.1205 2.1153-3.3288 1.8927 0.0894-1.4179 1.9539-1.0086 2.1705-2.2981-7.4666 0.0603-14.338 1.6826-20.824 2.7967-2.6466 0.45571-5.153 1.1388-7.5895 1.0525 0.58244-0.45094 1.657-0.39581 2.1505-0.93833-7.9844 0.90794-13.47 3.2998-19.899 5.9185-0.65752 2.9521 0.93789 7.0127 1.0186 9.9201 1.0954-0.64667 2.6982-1.8172 4.1005-1.4934-0.89318 0.65795-2.1748 0.91445-3.13 1.5077-0.26865 0.54381 1.0221 0.50171 0.37715 0.78251-0.55987-0.0317-1.2734 0.0881-1.5507-0.217-0.0096 0.58244-0.01779 1.1653-0.02604 1.7469 1.7516-0.49693 3.0658-2.4908 5.271-1.8632-0.97044 1.1037-3.1999 0.90881-3.9182 2.2725 0.78425 0.39842 2.2846-0.57375 2.5164 0.62019-0.6458 0.64884-1.7681 0.80725-2.545 1.322-0.17013 0.73912 0.93311 0.24218 0.76211 0.98172-0.20312 0.64537-1.0203 0.65752-1.1853 1.342 0.50909-0.0469 0.83416 0.0829 0.76862 0.59372-0.68616 0.73998-1.7291 1.1115-2.7425 1.5125 0.01779-1.6236 0.98085-2.6379 0.44659-3.8765 0.30467-0.73868 1.3133-0.75127 1.5759-1.5307-0.59459 0.1315-0.70439-0.20919-1.1618-0.21093-0.8385 2.5533-2.3501 5.4624-2.4517 8.1198 2.7954-2.509 7.4462-3.107 12.097-3.7038 0.16926-0.54599-0.26605-0.50693-0.17968-0.97392 1.3554 0.14323 1.828-2.4856 3.3327-2.0871-0.39494 1.302-1.6375 1.7295-2.1791 2.8809 1.7456 0.12847 2.5624-1.6592 3.7125-1.4982 0.04253 0.56898-0.44833 0.59024-0.40536 1.1592 5.3804-0.1736 9.9309-1.2044 15.362-1.3246-0.30553-0.63061-0.1506-1.1293 0.79249-0.9596 0.43444 0.0881-0.0464 1.0651 0.56681 0.98 0.57985-0.21397 1.2799-0.33896 2.3298 0.0343 0.48478-0.28904 0.36629-1.2013 1.1827-1.1475 0.35761 0.35112-0.16536 0.49086-0.0174 1.1653 20.485-0.64449 46.518-2.4738 62.852 5.0141 1.0026-0.263 1.6423 0.81984 2.3276 0.22873-0.88365-0.29427-2.1275-1.2473-2.1106-1.7781 0.88927-0.0187 1.276 1.2022 1.93 0.80377-0.36848-1.2356-0.95265-2.2638-1.1102-3.7051-1.434-0.9049-3.1388-1.5472-4.0341-2.9742 1.6245 0.33723 2.1379 1.753 3.6578 2.1909 0.19573-2.4868-2.8245-1.8506-3.4425-3.5467 0.0695-0.85715 1.0247 0.11983 1.1701-0.3715-0.44746-0.45788-1.2877-0.53643-1.536-1.1874 0.17534-0.148 0.44226-0.20269 0.77948-0.18316-6e-3 -0.88537-1.0082-0.80769-1.1423-1.5702 1.5364 0.16666 1.9422 1.4314 3.67 1.4136-0.25259-2.1609-5.2736-2.3857-3.8201-4.3292zm-45.624-14.276c0.0317-0.22828 0.35284-0.43443 0.01-0.58156-0.0312 0.22872-0.35198 0.43487-0.01 0.58156zm19.618-0.096c-0.22872 0.0278-0.55032-0.0408-0.58547 0.18619 0.22916-0.0273 0.55162 0.0417 0.58547-0.18619zm-43.135 1.3012c-0.22916 0.0261-0.55119-0.0421-0.58504 0.18445 0.22829-0.0273 0.55075 0.0408 0.58504-0.18445zm-3.8982 0.91228c0.96566-0.25433 2.2768-0.1519 2.9239-0.73348-1.0499 0.16709-2.2256 0.20442-2.9239 0.73348zm-0.58504 0.18445c0.12499 0.12977-0.08073-0.0816 0 0zm77.589 19.607c-0.13931-0.62975-0.52341-1.0234-1.148-1.1827-0.0786 0.84197 0.51952 1.0273 1.148 1.1827zm9.6592 16.459c-3.4976 1.6748-8.9331 1.1731-13.017 0.38801-0.45701 0.38366-0.98736 0.69267-1.1857 1.3424 3.9369 1.0308 9.6835 0.52775 13.587 0.59068-4.2051 0.95004-9.667 1.0985-13.985-0.0148-0.0317 0.88711-0.77991 1.036-0.61324 2.1288 5.6599 0.50258 12.875-0.13974 17.873-0.31681-6.0097 1.2499-11.992 1.2374-17.886 1.0928-0.14886 0.59155 0.32725 0.57636 0.17751 1.1675 1.8936 0.77123 4.179 0.42836 6.0171 0.28384 4.492-0.35328 9.5082-0.84631 13.618-1.5451 2.4187-0.411 4.5262-1.4899 6.6368-2.2312 2.7811-0.97825 6.29 0.36152 8.9197 0.90881-0.61628-1.8888-2.7481-2.3063-4.2229-3.3636 0.35328-1.3502-1.2938-1.4266-1.9066-2.3592 0.0517-0.34157 0.34069-0.43835 0.78295-0.37716-0.063-0.83241-1.2538-0.56941-1.1423-1.5702 1.9331-0.01 3.0832 2.3519 4.6109 3.3696-0.51733 0.10248-0.97651-0.81332-1.3563-0.2157 1.532 0.42793 1.8198 2.0633 3.0663 2.7659-0.39191-5.4242-2.5576-9.1267-3.6782-13.844-1.6015-0.2795-4.2437-1.0768-5.008-2.7937 1.8727 0.54337 3.1895 1.6245 4.8201 2.4031-2.7915-7.5964-15.554-1.0243-21.745-0.51863 2.7698 1.1063 7.1277 0.0187 9.1315-0.25303-2.7499 1.2621-6.7592 1.5281-10.696 1.006-0.16622 0.67139 0.27776 0.75126 0.17317 1.3623 1.8502 0.0807 4.9407 0.91879 7.1763 0.69006-1.822 1.1519-4.8426 0.31163-6.6086 0.28949 1.5377 2.5641 7.3408 1.0008 9.8923 0.92487-2.1492 1.3337-5.856 1.0642-9.3385 1.0256 0.0548 0.457 0.29643 0.73303 0.17403 1.3624 2.5164 0.48565 5.5397-0.23741 7.9644-0.0755-1.9552 1.0759-5.166 0.85499-8.1697 0.84891 0.85283 1.2382 5.6022-0.0611 7.5665 0.50171-1.1154 0.43748-2.6019 0.63669-4.0892 0.71612-1.4991 0.0807-3.7398-0.71004-4.2862 0.90663 2.2659 0.29121 4.8031-0.33419 6.402 0.48392-2.1384 0.96175-6.9267-0.84111-8.7582 1.2291 1.4483 0.31682 4.7007-0.24261 6.6021 0.0981-2.4981 1.1072-7.2844-0.14322-9.3437 1.4153 3.5467 0.98302 8.1836 0.6853 11.844 0.17664zm-113.01-14.502c-1.3697 0.0111-3.081 0.32463-4.6634 0.125-1.549-0.19748-3.0189-1.2295-4.061-1.2265-1.7972 5e-3 -2.5103 1.4813-2.9504 2.4808 1.1336-0.21874 2.9907-1.9274 3.7016-0.72131-0.97217 0.9713-3.0797 0.77036-3.7216 2.0802-0.69398 0.29209-0.10764-0.66056-0.57332-0.59068-2.0121 2.1188 0.45137 5.2002-0.31031 7.7635 0.67575 0.28385 1.2517-0.52557 1.5529 0.023-0.84588 0.50909-1.891 0.81289-1.973 2.108 0.23306 0.35285 1.4092-1.029 1.9474-0.36066-0.57462 0.63886-1.2703 1.4865-2.1479 0.74563-1.0863 2.7095-3.7394 4.7975-2.851 8.8919 3.7229-3.8652 10.272-1.7807 14.766-0.36284 1.6293 0.51474 3.2984 1.1245 5.028 1.4344 4.2094 0.75429 10.386 0.98518 12.066-1.5681-2.0324 1.3216-6.9393 2.654-9.3316 0.63755 3.6847 0.89882 7.254-0.32117 9.7369-1.7968-0.78381 0.22004-1.5342 0.59676-2.1353-0.0312-3.0615 2.1666-10.391 1.697-13.001-0.77644-1.7339 0.0877-2.7755-0.49563-3.8696-1.0303 4.2151 0.80724 8.2917 2.7668 13.175 2.1392 1.9474-0.25043 3.8171-1.3272 4.7068-3.0372-2.3037 1.0581-5.468 2.8366-8.7643 1.618 1.3632-0.12499 2.8388-0.0525 4.0831-0.32766 1.7174-0.38063 4.0892-1.6774 4.3153-2.8492-1.1288-0.0373-2.0455 0.99604-3.3241 1.5038-3.8739 1.5394-10.302 1.8028-13.192-0.97347 1.542 0.35371 3.3839 0.41663 4.2515 1.4231 4.3483 0.27387 7.6524-0.52861 10.132-2.1791 0.56898-0.33549-0.66012-0.97435 0.0204-1.3593 0.79683 0.40058 1.3146 0.8411 1.7508-0.16883-0.4965-0.0295-0.67445-0.36543-0.96306-0.59632-3.0003 2.5368-10.797 3.8644-14.383 0.75604 3.4747 1.0811 10.847 2.3111 12.065-1.5676-1.1727 0.24521-2.4087 2.2807-3.7068 1.1093 0.30945-0.73216 1.726-0.32377 1.7677-1.3333-1.9465 0.50562-4.3991 1.0572-6.6134 0.67922-1.4296-0.24391-3.5111-0.55293-4.0545-1.6149 2.4096 0.90057 6.55 1.5077 8.9292 0.32811-2.8618-1.1774-9.1462-0.0525-9.8658-2.6726 1.4483 0.82677 3.2155 1.3445 5.6143 1.2486-0.18358-2.7551-5.6942-0.34027-6.1737-2.8102 1.1996 0.39537 3.4538 0.69137 4.8513 0.26648 0.30467-0.2782 0.18619-0.99127 0.2183-1.5507-2.5875-0.04-5.1213-0.13323-6.1902-1.6453 1.7095 0.54945 5.419 1.6427 6.6047-0.0963-2.1175-0.11454-4.7689 0.29078-5.2237-1.4366 1.3645 0.64926 4.5718 1.1193 5.6343-0.11159-1.7586-0.52471-4.7298 0.1263-5.2185-1.6314 1.5438 0.91748 3.8657 0.25388 5.6217 0.66706 0.42316-1.7243-1.9561-1.6149-3.2772-1.6024zm12.543 5.4303c-0.11502-0.28428-0.23523 0.016 0 0-0.05946 0.31335 0.17881 0.33722 0.18576 0.58547-1.6119 0.42663-3.6344-1.3715-5.2371-0.46656 1.5247 0.49867 3.8093 0.25737 4.2454 1.8111-1.4522 0.13107-4.0979-1.8463-5.8139-0.8628 1.8241 0.78078 5.0926 0.16015 5.5995 2.2199-1.5924-0.22743-3.6417-1.5325-6.3903-1.2612 1.4435 1.4166 6.0913 0.70786 5.9763 3.0029-1.3988-0.87496-3.1639-1.3958-5.2194-1.6323 3.9738 1.309 7.7357 2.8245 10.802 5.0171-1.3754-2.67-2.1462-6.3408-1.3975-10.51-1.2421 0.29947-2.7538 0.31727-3.5128 1.1145 0.94396 0.1042 1.9105 0.18662 2.1214 1.0017-0.27038 0.83025-0.86758 0.0404-1.3589-0.0199zm-1.9305-0.80551c-0.15147 0.0412-0.38323-8.8e-4 -0.3906 0.18835 0.15104-0.0412 0.38236 0 0.3906-0.18835zm1.1536 0.79379c0.12543 0.12847-0.08073-0.0821 0 0zm87.77 1.1128c-0.74084 3.903-1.8402 7.4358-2.8831 11.028 1.4196-1.8285 2.7894-3.1248 2.223-5.7927 1.2005-0.70744 1.5169-1.8337 1.2196-3.673 0.14365-0.50996 0.8897-0.39755 0.98562-0.95654-0.46134-0.25347-0.70396-0.71959-1.5451-0.60588zm2.3094 1.3945c-0.2834 0.11503 0.0178 0.23523 0 0 1.0277 0.22526 0.23913-0.58634 0 0zm-0.017 1.1649c1.111 0.35589 1.9079-0.17056 2.5155 0.6202 0.31205-0.3368 1.0451-0.23914 1.3684-0.56204-1.0026-0.95698-2.9595-1.348-3.8839-0.0582zm-96.525-0.0781c0.1263 0.12977-0.08073-0.0824 0 0zm94.931 2.7742c0.80116-0.48869 1.8024-0.77297 2.3528-1.5195-1.5759-0.30944-2.272 0.28688-2.3528 1.5195zm3.7012-0.72219c-0.28427 0.11453 0.0165 0.2348 0 0 0.50779 0.062 0.83676-0.0586 0.78599-0.57115-0.48609-0.04-0.61283 0.28905-0.78599 0.57115zm34.331 3.0354c-0.26302-0.0981-0.37196-0.66838-0.57073-0.78468-1.1744-0.68704-2.9057-0.47697-4.0688-0.6432-0.15147 0.04-0.22829 0.15928-0.19965 0.3854-0.19703 1.7872 0.65536 4.2116 0.48435 6.6108 3.7581 3.3384-3.39 6.3794-6.1208 6.7058-3.8475 0.46134-7.8342-1.6553-10.669-0.93485-0.33419 1.3224-1.6744 1.9869-1.6015 3.2772 0.24001 4.2836 10.515 3.2021 11.462-0.21743-2.3653 0.39148-4.6512 1.9109-6.4415 2.2338 5.7914-3.0124 13.657-5.3947 22.395-4.1326-3.449 0.47696-7.0048-0.37152-9.3402 1.2204 1.0538 0.15406 1.9409-0.28081 2.9187-0.34504 4.9173-0.32464 9.0403 0.95047 12.201 2.3176-2.1566-2.8874-4.8826-5.4624-9.0338-6.3495-0.77469-0.16534-2.0138 0.36501-2.515-0.61932 0.59241-1.6909 1.6909-2.8588 2.7794-4.0371-1.7161-0.0216-1.0164-1.1992-1.9135-1.9708 1.8315-0.7734 4.6946 0.799 6.4137-0.29296-1.8714-1.315-5.9463 0.3164-7.5521-1.4721 1.8584-0.61108 2.9408 1.0008 4.8535 0.073-0.91663-0.87712-2.2864-0.57419-3.4812-1.0243zm-8.7309-0.51734c0.12544 0.12847-0.0807-0.0824 0 0zm-162.2 2.0507c-2.1872-0.87451-4.1744-1.9443-5.579-3.5797 0.24938 1.9778 2.8796 5.0918 5.579 3.5797zm172.83 1.7972c0.60457 1.5381 3.8214 0.31683 6.0084 0.86628 1.8259 0.45874 5.2623 0.37498 5.6577-1.664 0.20442-7e-3 0.15624-0.24652-0.1914-0.1966-2.9144 1.6683-7.5092 0.69397-11.475 0.9943zm-124.27-2.2395c0.12543 0.12891-0.07985-0.0838 0 0zm123.1 2.6106c0.12456 0.12846-0.0807-0.0833 0 0zm-122.73-1.0525c0.32334 6e-3 0.6471 0.01 0.97 0.0151 0.07551-0.90924-0.88971-0.53295-0.97-0.0151zm-50.106-0.16275c-0.0809 1.2274 2.2546 0.0191 2.1353 0.0321-1.0713-0.0912-1.063-0.0903-2.1353-0.0321zm49.491 2.2911c0.71784 0.14843 0.83806-0.31899 1.5559-0.17099-0.08073-0.45223 0.79293-1.4387 0.02083-1.3597-0.53036 0.50561-1.4357 0.62367-1.5767 1.5307zm109.73 0.0812c-0.15104 0.0412-0.3828 0-0.39148 0.18793 0.15147-0.0412 0.38279 0 0.39148-0.18793zm2.5216 0.23177c-1.24-0.24262-0.43531 0.58633 0 0zm1.1627 0.21135c-0.22351-0.16622-0.51821-0.26387-0.9687-0.20919-0.30858 0.58201 0.99734 0.52645 0.9687 0.20919zm-7.3911 0.66664c3.7468-0.0642 6.6268 0.71264 10.086 0.92616-2.4092-1.2144-8.0651-2.2195-10.086-0.92616zm7.971-0.4644c0.12456 0.12978-0.0812-0.082 0 0zm1.5494 0.21745c0.12628 0.12933-0.0798-0.0821 0 0zm1.9183 1.5828c0.32247-0.31032 0.25217-1.2165-0.37064-1.1705-4e-3 0.51472-0.12542 1.1406 0.37064 1.1705zm-34 0.85282c5.0497 1.532 11.422-0.18923 15.177-1.9101-5.0562 0.6471-10.347 1.6293-15.177 1.9101zm24.297-1.3862c0.46656-0.11158 1.4053 0.26561 1.5563-0.17013-0.53773-0.24-1.1774-0.24-1.5563 0.17013zm-0.39408 0.38279c-0.93484-1.1514-4.2966-0.26994-6.0222 0.10457-0.30642 0.87149-1.2704 2.1032-0.82331 3.0953 1.7959-1.151 4.2763-0.22177 5.82 0.47436 0.2144-1.1935 1.9157 0.11245 3.1148-0.53556 0.27083-0.54424-1.0203-0.50171-0.37671-0.78252 0.51821 7e-3 1.036 0.0151 1.5538 0.0225-0.0551-0.4505 0.0429-0.74475 0.20918-0.96696-2.0798-0.25736-3.6018 0.0829-5.626-0.47263 2.4556-0.64971 5.297 0.53165 7.573 0.11195-1.3337-1.3767-3.3948-0.76255-5.4225-1.0512zm3.1157-0.53512c-0.15147 0.04-0.38366-1e-3 -0.39191 0.18749 0.15104-0.0412 0.3841 8.6e-4 0.39191-0.18749zm2.9035 0.62454c0.12542 0.13063-0.0799-0.0824 0 0zm0.57461 0.59154c0.57854-0.22786 1.2287 0.217 1.7525-0.36283-0.64449-0.55857-1.5516 0.32638-1.9352-0.41751-0.0503 0.36673 0.2118 0.43271 0.18272 0.78034zm-0.97955 0.56812c0.22612 0.036 0.20572 0.30944 0.18532 0.5846 0.388 6e-3 0.77687 0.0123 1.1649 0.0182-0.17144-0.47133-0.49043-0.80075-0.95699-0.98563-5e-3 0.2565-0.34243 0.17187-0.39321 0.38279zm3.6864 0.24911c0.76689 0.99171 0.91879-0.66315 0 0zm-134.39-0.64193c-2.5159-0.94309-6.3417-0.75474-8.7409 0.0639 0.67879 0.42576 2.1796 0.0529 2.3159 1.0056-2.0099 0.2131-4.3644-1.243-5.4433 0.30684 1.4422 0.13195 2.9143 0.23306 3.6752 1.0256-1.4127 0.15625-3.2169-0.31682-4.0775-0.0603 1.1141 0.51299 3.0176 0.25997 4.0662 0.83763 0.05425 0.4518-0.04253 0.74519-0.20832 0.96697 0.37715 0.33505 1.4292 0.0165 1.1492 0.98953-1.3281 0.3025-3.4595-1.2113-5.0397-0.65795 1.6236 1.0403 4.4177 0.9431 6.1885 1.8402 2.7572-0.57723 4.6512-2.0416 8.3741-1.6228-0.46178-1.8484-1.8753-2.7733-2.2594-4.6951zm129.32 1.7312c0.14236 0.32333 1.5954 0.3446 1.7473 0.0264-0.13714-0.31074-1.7056-0.84848-1.7473-0.0264zm-141.75-1.9174c0.3446-0.0383 0.9687 0.2105 0.78164-0.37671-0.44138-0.0603-0.73 0.0364-0.78164 0.37671zm146.22 1.7903c-0.25909-5e-3 -0.51689-9e-3 -0.77644-0.0126-0.3511 0.86888 0.8359 0.52645 0.77644 0.0126zm-5.6429 0.69224c-0.91966-0.55423-0.47914 0.63017 0 0zm1.9309 0.80595c0.48217 0.0364 0.80681-0.0881 0.97694-0.37325-0.36804 0.0803-1.167-0.28254-0.97694 0.37325zm-158.3 0.74953c1.1984-0.27734 2.8385-0.0977 3.509-0.91836-1.1866 0.28774-2.9235 0.0111-3.509 0.91836zm16.905-0.52515c-1.24-0.24305-0.43574 0.58634 0 0zm0.38236 0.39494c0.12543 0.12847-0.07986-0.0829 0 0zm0.77991-0.18358c-0.15104 0.0421-0.38323-4.3e-4 -0.39147 0.18879 0.1519-0.0408 0.38323 0 0.39147-0.18879zm-25.083 1.9574c1.3888-0.40927 3.0414-0.54685 3.5239-1.8901-1.5589 0.23393-2.759 0.83806-3.5239 1.8901zm167.19 2.1014c1.5208-0.40449 3.5098-0.32767 4.4872-1.2925-1.7052 0.21483-3.4651 0.37455-4.4872 1.2925zm-4.8743 1.2868c-0.28383 0.11626 0.0165 0.2361 0 0 1.874-0.37932 3.2468-0.0634 4.2923-1.2946-1.3007-0.90577-3.2524 0.64493-4.2923 1.2946zm-160.02-1.0234c0.99838-0.3511 2.3318-0.35892 3.1209-0.92399-1.4195 0.35415-2.5435-0.12891-3.1209 0.92399zm185.62 3.5424c0.0798-0.58851-0.62757-0.41275-0.96262-0.59763-0.0985 0.60588 0.40535 0.62758 0.96262 0.59763zm-149.52-2.0329c-0.65622 0.96566-2.2017 1.016-2.7494 2.0945 1.2729-0.33072 2.4287-0.78382 2.7494-2.0945 0.28471-0.11589-0.01562-0.23566 0 0" fill-rule="evenodd" stroke="#808080" stroke-width=".043"/></g><g stroke-width="0"><path d="m49.188 258.31-2.4403-0.25487c-0.17426 0.30295-0.3489 0.60589-0.5239 0.90879-0.12934 0.22366-0.2 0.39332-0.21175 0.50919-0.0093 0.0921 0.0275 0.17846 0.11058 0.25916 0.0865 0.0781 0.28131 0.14339 0.58447 0.196l-0.01639 0.16487-1.9957-0.20802 0.01728-0.16481c0.2694-0.017 0.44666-0.057 0.53185-0.12016 0.17349-0.12598 0.37918-0.39723 0.61625-0.81372 0.90973-1.58 1.8095-3.1607 2.6992-4.742l0.16085 0.0169c0.56303 1.7517 1.1361 3.504 1.7191 5.257 0.14086 0.42273 0.27787 0.70256 0.41029 0.83936 0.13581 0.13416 0.33239 0.22215 0.58962 0.26397l-0.01428 0.16501-2.5004-0.26063 0.01539-0.16494c0.25338 0.0144 0.42682-8e-3 0.52028-0.0673 0.09658-0.0589 0.14931-0.13744 0.1583-0.23553 0.01198-0.13082-0.03136-0.34378-0.12962-0.63913-0.10067-0.30306-0.20104-0.6061-0.3011-0.90912zm-0.09931-0.34346c-0.27992-0.85145-0.55749-1.7028-0.83268-2.5539-0.44138 0.77609-0.88519 1.552-1.3314 2.3278zm6.4966 1.4884c-0.15551 0.52659-0.41235 0.918-0.77122 1.1745-0.35856 0.25351-0.74259 0.35895-1.1509 0.3164-0.48623-0.0507-0.89436-0.28967-1.2227-0.71686-0.3284-0.4273-0.46332-0.97214-0.40672-1.6353 0.05481-0.64215 0.29758-1.1434 0.72603-1.5035 0.43164-0.35981 0.92372-0.51076 1.4782-0.45273 0.41586 0.0435 0.74931 0.18641 1.001 0.42868 0.25197 0.23928 0.36961 0.4735 0.35222 0.70258-0.0086 0.11307-0.05419 0.20126-0.13691 0.26459-0.0794 0.0607-0.18715 0.0839-0.32319 0.0697-0.18242-0.0191-0.31563-0.09-0.39951-0.21269-0.04766-0.0679-0.07386-0.19063-0.0786-0.36811-0.0017-0.17712-0.05287-0.31745-0.15352-0.42095-0.10089-0.10053-0.24685-0.16079-0.438-0.18079-0.3083-0.0323-0.56536 0.0518-0.77169 0.2522-0.27387 0.26525-0.43127 0.63736-0.47115 1.1161-0.04063 0.48774 0.04731 0.93179 0.26501 1.3325 0.22102 0.39799 0.54521 0.61926 0.97142 0.66371 0.30488 0.0318 0.58655-0.0393 0.84442-0.21333 0.18155-0.119 0.36685-0.35007 0.5555-0.69323 0.0434 0.0255 0.08681 0.051 0.13023 0.0766zm4.5143-2.1585-0.15955 2.4787c-0.03048 0.47344-0.03825 0.764-0.02329 0.87184 0.01826 0.10494 0.05104 0.17896 0.09832 0.22209 0.05041 0.0432 0.10997 0.0658 0.17866 0.0678 0.0968 3e-3 0.2077-0.0194 0.33265-0.0665 0.01857 0.0527 0.03715 0.10547 0.05573 0.15821-0.43843 0.15594-0.87731 0.31185-1.3166 0.46773l-0.21102-6e-3 0.05715-0.86636c-0.08735 0.0823-0.16998 0.15769-0.24786 0.22625-0.27197 0.22093-0.48608 0.36179-0.64152 0.42253-0.19986 0.0781-0.40744 0.10593-0.6225 0.0835-0.24-0.025-0.44424-0.11226-0.61245-0.26172-0.16489-0.15211-0.27394-0.33587-0.32729-0.55133-0.05336-0.21549-0.06609-0.51358-0.03838-0.89452l0.13277-1.8257c0.01407-0.19341 0.0022-0.3296-0.03556-0.4085s-0.09839-0.14223-0.18188-0.18995c-0.08019-0.0504-0.23136-0.0857-0.45354-0.10591l0.01233-0.16513 1.4837 0.15528-0.19327 2.7366c-0.02691 0.381 0.02378 0.63807 0.15234 0.77143 0.13164 0.13365 0.2956 0.21071 0.49167 0.23116 0.13383 0.014 0.28754-0.0105 0.46097-0.0733 0.11528-0.0408 0.24588-0.11138 0.39168-0.21165 0.07774-0.0588 0.1598-0.12634 0.24615-0.20252l0.1529-2.3177c0.01532-0.23221-0.01937-0.38981-0.10396-0.47275-0.02286-0.0241-0.05351-0.0454-0.09196-0.0639-0.09776-0.0548-0.2462-0.0948-0.44537-0.11994l0.01118-0.16521c0.15 0.0157 0.3 0.0314 0.45 0.0471 0.3326 9e-3 0.6652 0.0189 0.9978 0.0284zm2.2471 0.8158c0.32842-0.28924 0.52067-0.45481 0.57942-0.49815 0.14614-0.10921 0.30156-0.1928 0.4663-0.25076 0.16474-0.058 0.32607-0.0848 0.48409-0.0803 0.26646 8e-3 0.49154 0.0886 0.67552 0.24303 0.18397 0.15442 0.30094 0.37412 0.35076 0.65902 0.33912-0.34844 0.62112-0.57463 0.84701-0.67864 0.22601-0.10696 0.45509-0.15715 0.68746-0.15054 0.22618 6e-3 0.42313 0.0687 0.59105 0.18695 0.17115 0.11529 0.3017 0.30108 0.39168 0.55734 0.05978 0.17478 0.08072 0.44704 0.06268 0.8166l-0.08599 1.7615c-0.01251 0.25634-8.15e-4 0.43275 0.03514 0.52931 0.02804 0.0665 0.08307 0.12474 0.16511 0.17488 0.08219 0.0471 0.21859 0.0735 0.40918 0.079l-0.0076 0.16096-2.1191-0.061 0.0083-0.16091 0.08904 3e-3c0.18434 5e-3 0.32983-0.0248 0.43639-0.0904 0.07427-0.0456 0.12964-0.12015 0.16613-0.22354 0.01504-0.0503 0.02857-0.19463 0.04059-0.43308l0.08881-1.7613c0.01683-0.33376-0.01324-0.57043-0.09008-0.70989-0.11137-0.19418-0.30033-0.29507-0.56708-0.30267-0.16439-5e-3 -0.33242 0.0308-0.50422 0.10649-0.16855 0.0728-0.37644 0.21307-0.62408 0.42087-4e-3 0.0163-8e-3 0.0326-0.01203 0.0489-3.52e-4 0.0641-7.03e-4 0.12829-0.0011 0.19244l-0.10583 1.953c-0.01518 0.28008-9e-3 0.45481 0.01851 0.52424 0.03064 0.0695 0.08997 0.12942 0.17801 0.1797 0.0882 0.0473 0.24166 0.0741 0.46038 0.0804l-0.0085 0.16091-2.1706-0.0625 0.0092-0.16086c0.23746 7e-3 0.40145-0.0153 0.49193-0.0664 0.09361-0.051 0.16057-0.12965 0.20091-0.23593 0.01844-0.0502 0.03447-0.1974 0.04809-0.44172l0.09822-1.7607c0.01861-0.33364-0.01928-0.57497-0.11349-0.72384-0.12586-0.19456-0.31118-0.29533-0.55621-0.30231-0.16749-5e-3 -0.33591 0.0337-0.50538 0.11538-0.26515 0.12372-0.47254 0.26549-0.62204 0.42532l-0.1307 2.1936c-0.01597 0.26807-0.0076 0.44282 0.02506 0.52432 0.03581 0.0816 0.08998 0.14431 0.16249 0.18816 0.07581 0.041 0.2309 0.0648 0.46524 0.0716l-0.0094 0.16085-2.1238-0.0611 0.01006-0.16081c0.19684 6e-3 0.33552-0.01 0.41601-0.0462 0.08067-0.0394 0.14396-0.10176 0.18985-0.18696 0.04608-0.0882 0.07684-0.25882 0.09232-0.51196l0.09566-1.5635c0.02751-0.44966 0.03129-0.74049 0.01139-0.87229-0.01571-0.0989-0.04573-0.16687-0.09007-0.20394-0.04416-0.04-0.10656-0.0612-0.18721-0.0635-0.08686-2e-3 -0.19216 0.0169-0.31596 0.0581-0.01992-0.0543-0.03983-0.10853-0.05973-0.16279 0.43846-0.15456 0.87648-0.30915 1.3141-0.46377l0.19984 6e-3c-0.01729 0.29036-0.03459 0.58073-0.05188 0.87109zm6.8316 0.98742c-0.03066 0.60815 0.1017 1.0894 0.39827 1.4443 0.2965 0.35479 0.65595 0.53828 1.0774 0.55039 0.28094 8e-3 0.52748-0.058 0.73933-0.19819 0.21511-0.14311 0.39988-0.39157 0.55419-0.74545 0.04711 0.0312 0.09423 0.0624 0.14136 0.0937-0.08143 0.40674-0.28626 0.77404-0.6153 1.102-0.3289 0.32494-0.73143 0.48053-1.2066 0.46685-0.51584-0.0149-0.94995-0.21842-1.301-0.61061-0.34791-0.39516-0.50602-0.91593-0.47584-1.5629 0.03268-0.70043 0.2448-1.2408 0.63473-1.6206 0.39325-0.38281 0.87114-0.56624 1.435-0.55019 0.47714 0.0136 0.86268 0.1768 1.1575 0.48974 0.29489 0.30991 0.43292 0.71851 0.41307 1.2255-0.98401-0.0281-1.968-0.0563-2.952-0.0844zm0.01174-0.25937 1.9763 0.0565c-0.0047-0.26285-0.02972-0.44869-0.07493-0.55744-0.07068-0.1692-0.18157-0.30373-0.3326-0.40357-0.14794-0.0998-0.30556-0.152-0.47298-0.15677-0.25733-7e-3 -0.49249 0.083-0.70587 0.27095-0.21012 0.18504-0.34019 0.44853-0.3899 0.79037zm4.7826-0.40087c0.5202-0.56449 1.0051-0.84038 1.4575-0.82751 0.23237 7e-3 0.43039 0.069 0.59422 0.18715 0.16392 0.11517 0.29162 0.3025 0.38312 0.56197 0.06282 0.18097 0.08873 0.45655 0.07759 0.82657l-0.05272 1.7502c-0.0078 0.25964 0.0087 0.43631 0.04967 0.5301 0.03212 0.0756 0.08504 0.13535 0.15878 0.17929 0.07686 0.044 0.21841 0.069 0.42463 0.0749l-0.0046 0.16116-2.1238-0.0611 0.0053-0.16111 0.08904 3e-3c0.19997 6e-3 0.33992-0.0186 0.41984-0.073 0.08314-0.0574 0.14211-0.14228 0.17693-0.25475 0.01392-0.0444 0.02461-0.18447 0.03208-0.42019l0.05323-1.6784c0.01183-0.37296-0.03088-0.64452-0.12793-0.81451-0.09386-0.17291-0.26014-0.26277-0.49898-0.26958-0.36912-0.0105-0.74311 0.17294-1.1233 0.5503l-0.07647 2.1613c-0.0098 0.27745 0.0013 0.44945 0.03331 0.51608 0.04067 0.0878 0.09776 0.15361 0.17128 0.19754 0.07675 0.041 0.2323 0.0649 0.46664 0.0716l-0.0055 0.1611-2.1238-0.0611 0.0062-0.16106 0.09373 3e-3c0.21871 6e-3 0.36753-0.0417 0.44637-0.14393 0.08209-0.10515 0.1286-0.30683 0.13963-0.60513l0.05626-1.5213c0.0182-0.49214 0.01685-0.79234-4e-3 -0.90039-0.01775-0.108-0.05072-0.18211-0.09891-0.2223-0.04509-0.0401-0.10796-0.0613-0.18862-0.0636-0.08686-2e-3 -0.19162 0.0169-0.31434 0.0582-0.02121-0.0543-0.04242-0.1087-0.06361-0.16305 0.43444-0.15483 0.86843-0.30969 1.302-0.46457l0.19984 6e-3c-0.01024 0.28937-0.02047 0.57874-0.03071 0.86811z" aria-label="Acumen"/><path d="m94.452 256.01c0.06278 0.68714 0.12563 1.3743 0.18856 2.0614l-0.14218 3e-3c-0.20345-0.61436-0.48376-1.0542-0.84092-1.3193-0.35719-0.26516-0.78142-0.39322-1.273-0.38418-0.41222 8e-3 -0.7826 0.11743-1.1114 0.32953-0.32883 0.20911-0.58518 0.53934-0.76905 0.99065-0.18081 0.45124-0.265 1.0098-0.25224 1.6754 0.01053 0.54929 0.10994 1.0237 0.29852 1.4234 0.18858 0.39967 0.46588 0.70361 0.83198 0.91186 0.36915 0.20819 0.78694 0.30797 1.2531 0.29937 0.40481-7e-3 0.76033-0.0977 1.0664-0.27053 0.30597-0.17585 0.6389-0.51794 0.99829-1.0262 0.04816 0.029 0.09633 0.058 0.1445 0.0869-0.30028 0.54603-0.65631 0.94824-1.0679 1.2067-0.41161 0.25844-0.90442 0.39296-1.4781 0.40356-1.0338 0.0191-1.842-0.33925-2.4231-1.0751-0.43347-0.54747-0.65666-1.1973-0.67047-1.9496-0.01112-0.606 0.1179-1.1653 0.38655-1.6779 0.26865-0.5126 0.64305-0.91221 1.1231-1.1988 0.4831-0.28959 1.0129-0.43969 1.5898-0.45031 0.44874-8e-3 0.89362 0.0911 1.335 0.29794 0.12968 0.0633 0.22202 0.0944 0.27698 0.0934 0.08245-2e-3 0.15358-0.0312 0.21339-0.089 0.0776-0.0821 0.13159-0.19503 0.16196-0.33892 0.05342-9.8e-4 0.10684-2e-3 0.16027-3e-3zm3.0027 1.9334c0.63594-0.0117 1.1524 0.21466 1.5501 0.67911 0.33776 0.39687 0.51376 0.85647 0.52751 1.3787 0.0097 0.36709-0.07089 0.74032-0.24191 1.1197-0.17102 0.37939-0.41356 0.66752-0.72766 0.86443-0.31102 0.19684-0.66143 0.29887-1.051 0.30606-0.63501 0.0117-1.1456-0.22518-1.5313-0.71075-0.32557-0.40907-0.4941-0.87176-0.50607-1.3881-0.0087-0.37609 0.07757-0.75094 0.25862-1.1246 0.18404-0.37663 0.42989-0.65589 0.73758-0.83773 0.30762-0.18483 0.6356-0.28045 0.98415-0.28688zm-0.135 0.29363c-0.16208 3e-3 -0.32451 0.0537-0.48734 0.15231-0.15985 0.0955-0.28742 0.26209-0.38273 0.49974-0.09531 0.23765-0.1386 0.54155-0.12978 0.91164 0.01424 0.59696 0.14746 1.1096 0.40008 1.5379 0.25567 0.42825 0.58304 0.63869 0.98174 0.63133 0.29749-5e-3 0.53986-0.12941 0.72695-0.37174 0.18711-0.24236 0.27308-0.65447 0.25815-1.2365-0.01869-0.72819-0.19418-1.2983-0.52593-1.7102-0.22444-0.28252-0.50475-0.42068-0.84114-0.41448zm4.0482 0.50764c0.29774-0.30416 0.47311-0.4789 0.52701-0.52477 0.13442-0.11594 0.28022-0.20671 0.43743-0.27231s0.31376-0.0999 0.46968-0.10275c0.26294-5e-3 0.49135 0.0656 0.68533 0.2113 0.19397 0.14571 0.32732 0.35973 0.4 0.64204 0.30448-0.36391 0.56343-0.60305 0.77719-0.71747 0.21367-0.1174 0.43511-0.1782 0.66441-0.18243 0.22319-4e-3 0.42214 0.0489 0.59693 0.15919 0.17775 0.10719 0.32111 0.28669 0.43007 0.53846 0.0727 0.17182 0.11502 0.44275 0.12676 0.81275l0.0559 1.7635c8e-3 0.25662 0.0336 0.43229 0.0765 0.52705 0.0328 0.0651 0.0913 0.1207 0.17561 0.16694 0.0842 0.0432 0.2199 0.0631 0.40699 0.0597l5e-3 0.16113-2.0797 0.0384-5e-3 -0.16113 0.0874-2e-3c0.18095-3e-3 0.32097-0.0403 0.42005-0.11077 0.0691-0.0491 0.11728-0.1261 0.14469-0.23108 0.0107-0.0509 0.0123-0.19576 5e-3 -0.4345l-0.0549-1.7636c-0.0104-0.3342-0.0591-0.56919-0.14591-0.70492-0.12524-0.18879-0.31935-0.28075-0.58239-0.27591-0.16211 3e-3 -0.32451 0.0463-0.48726 0.12991-0.15979 0.0806-0.35269 0.23043-0.57886 0.44958-3e-3 0.0165-5e-3 0.033-8e-3 0.0494 5e-3 0.0641 0.01 0.1282 0.0149 0.19231l0.0582 1.9561c8e-3 0.28051 0.0289 0.45479 0.0616 0.52287 0.0358 0.068 0.0989 0.12506 0.1892 0.17117 0.0903 0.0431 0.24277 0.0627 0.45746 0.0587l5e-3 0.16114-2.1303 0.0393-5e-3 -0.16114c0.23309-4e-3 0.3918-0.0341 0.47611-0.0894 0.0874-0.0554 0.14637-0.13705 0.17697-0.24512 0.0139-0.051 0.0172-0.19885 0.0101-0.44358l-0.0514-1.7637c-0.01-0.33422-0.0673-0.57354-0.17245-0.71789-0.14015-0.18851-0.331-0.28054-0.57263-0.27608-0.16517 3e-3 -0.32757 0.0493-0.48725 0.13886-0.25018 0.13599-0.44187 0.28732-0.57501 0.45399l0.061 2.198c7e-3 0.26859 0.0307 0.44283 0.0697 0.52273 0.0421 0.0798 0.10053 0.13997 0.17532 0.18039 0.0778 0.0374 0.23165 0.0539 0.46167 0.0497l5e-3 0.16115-2.0843 0.0385-4e-3 -0.16116c0.19322-4e-3 0.32765-0.0255 0.40327-0.0657 0.0755-0.0432 0.13207-0.10844 0.16958-0.19573 0.0374-0.0903 0.0527-0.26223 0.0458-0.5159l-0.0426-1.5668c-0.0123-0.45063-0.0339-0.74138-0.065-0.87217-0.0241-0.0981-0.0596-0.16462-0.10638-0.19959-0.0469-0.0379-0.11018-0.0562-0.18969-0.0547-0.0857 2e-3 -0.18752 0.0259-0.30562 0.0728-0.02438-0.0533-0.04876-0.10659-0.07314-0.15989 0.41763-0.17491 0.8351-0.34981 1.2524-0.52471l0.19721-4e-3c8e-3 0.29094 0.0162 0.58189 0.0243 0.87284zm7.3091-0.16071c0.29513-0.31307 0.46751-0.49215 0.52117-0.53989 0.13292-0.11978 0.2773-0.21469 0.43324-0.28474 0.15593-0.0701 0.31147-0.10876 0.46677-0.11604 0.26189-0.0123 0.49032 0.0517 0.68576 0.19189 0.19541 0.14017 0.33167 0.35039 0.40852 0.63053 0.2986-0.37251 0.55264-0.61883 0.76377-0.73927 0.21094-0.1234 0.4304-0.19043 0.65879-0.20113 0.2223-0.0104 0.42157 0.037 0.59811 0.14218 0.17941 0.10207 0.32626 0.27736 0.44059 0.52579 0.0764 0.16957 0.12469 0.43912 0.14464 0.80841l0.0951 1.7603c0.0138 0.25617 0.0434 0.43091 0.0886 0.52434 0.0344 0.064 0.0946 0.11793 0.18061 0.16165 0.0858 0.0407 0.22299 0.0566 0.41143 0.0477l9e-3 0.16081-2.0955 0.0994-8e-3 -0.1609 0.088-4e-3c0.18226-9e-3 0.32265-0.0496 0.42108-0.123 0.0686-0.0511 0.11566-0.12944 0.14117-0.23515 0.01-0.0512 8e-3 -0.19597-4e-3 -0.43434l-0.0903-1.7607c-0.0171-0.33363-0.0705-0.56712-0.15992-0.70025-0.1288-0.18509-0.32422-0.27149-0.5866-0.25917-0.1617 8e-3 -0.32297 0.0555-0.48401 0.1437-0.15814 0.0851-0.34821 0.24035-0.5709 0.4659-2e-3 0.0165-5e-3 0.0331-7e-3 0.0496 6e-3 0.064 0.0119 0.12789 0.0179 0.19183l0.0879 1.9539c0.0126 0.28021 0.0359 0.45382 0.0698 0.52093 0.0371 0.0669 0.10145 0.12214 0.19317 0.16558 0.0916 0.0405 0.24555 0.0556 0.4618 0.0453l8e-3 0.16093-2.1465 0.1018-6e-3 -0.16103c0.23477-0.0111 0.3943-0.0456 0.47854-0.10333 0.0873-0.0579 0.14568-0.14133 0.17509-0.25029 0.0133-0.0514 0.0148-0.19932 4e-3 -0.44384l-0.0746-1.762c-0.0141-0.33388-0.0748-0.57159-0.18163-0.71292-0.14234-0.1845-0.33382-0.27112-0.57483-0.2598-0.16475 8e-3 -0.32625 0.0586-0.48473 0.15272-0.24834 0.14313-0.43844 0.29997-0.5701 0.4705l0.079 2.197c0.01 0.26849 0.0344 0.44208 0.0743 0.52089 0.043 0.0786 0.10236 0.13708 0.17803 0.17533 0.0786 0.0351 0.2338 0.0472 0.46549 0.0362l6e-3 0.16105-1.611 0.0764-0.48544 9e-3 -5e-3 -0.16113c0.19323-4e-3 0.32755-0.0255 0.40295-0.0656 0.0291-0.0167 0.0553-0.0366 0.0786-0.0598 0.0374-0.0381 0.0676-0.0843 0.0905-0.1386 0.0372-0.0914 0.0515-0.26391 0.043-0.51754l-0.0521-1.5664c-0.015-0.45048-0.0384-0.74086-0.0703-0.8708-0.0247-0.0975-0.0605-0.16302-0.10736-0.19667-4e-3 -3e-3 -8e-3 -6e-3 -0.0117-8e-3 -0.0458-0.0319-0.10518-0.0472-0.17827-0.0459-0.0857 2e-3 -0.18739 0.0258-0.30524 0.0728-0.0247-0.0533-0.0494-0.10657-0.074-0.15986 0.18193-0.0764 0.36384-0.15271 0.54571-0.22907 0.23391-0.10525 0.46758-0.21049 0.70101-0.3157l0.19641-9e-3c0.0105 0.29082 0.021 0.58164 0.0315 0.87246zm9.6791-1.2069 0.17473 2.4762c0.0334 0.47298 0.0646 0.76237 0.0938 0.86848 0.032 0.10294 0.0742 0.17405 0.12652 0.21335 0.0554 0.0392 0.11704 0.0571 0.18496 0.0539 0.0957-5e-3 0.20184-0.0349 0.31848-0.0911 0.0254 0.051 0.0508 0.10204 0.0762 0.15305-0.41059 0.18806-0.82193 0.37617-1.234 0.56435l-0.20872 0.01-0.0588-0.86575c-0.33787 0.39796-0.60056 0.65083-0.78568 0.75806-0.18524 0.10728-0.38468 0.166-0.59803 0.17612-0.2381 0.0113-0.44936-0.0444-0.63343-0.16699-0.18117-0.12576-0.31177-0.29122-0.39199-0.49643-0.0802-0.20523-0.13143-0.49829-0.1539-0.87944l-0.10772-1.8266c-0.0114-0.19351-0.0407-0.32651-0.0878-0.39893-0.0471-0.0724-0.11444-0.126-0.20205-0.1607-0.0847-0.0378-0.23675-0.0501-0.45605-0.0368l-9e-3 -0.16528 1.4669-0.0688 0.16882 2.737c0.0235 0.38105 0.10664 0.6278 0.24982 0.74047 0.14622 0.11249 0.31667 0.16411 0.5111 0.1549 0.13271-6e-3 0.27982-0.0535 0.44112-0.14178 0.16436-0.0884 0.35471-0.25111 0.57035-0.48814l-0.15718-2.3161c-0.0158-0.23205-0.0706-0.38619-0.16447-0.46236-0.091-0.0793-0.27385-0.11549-0.54857-0.10857l-0.0108-0.16515c0.47522-0.0223 0.95045-0.0446 1.4257-0.0669zm2.2885 0.64002c0.44649-0.59976 0.88977-0.90987 1.3344-0.93071 0.22838-0.0107 0.42953 0.0365 0.60375 0.14171 0.17393 0.10219 0.32085 0.27874 0.44079 0.52959 0.0827 0.17502 0.1402 0.44679 0.17241 0.81504l0.15235 1.742c0.0226 0.25843 0.0595 0.43261 0.11079 0.52265 0.0405 0.0727 0.0996 0.12801 0.17737 0.16608 0.0809 0.0379 0.22328 0.052 0.42716 0.0424l0.0144 0.16036-2.1002 0.0996-0.0132-0.16046 0.088-4e-3c0.19771-9e-3 0.33282-0.0441 0.40527-0.10423 0.0753-0.0632 0.12358-0.15204 0.14487-0.26638 9e-3 -0.0452 3e-3 -0.18507-0.017-0.41977l-0.14163-1.6711c-0.0315-0.37131-0.10477-0.6379-0.21953-0.79949-0.11198-0.16476-0.28531-0.24163-0.52025-0.2306-0.36308 0.017-0.70872 0.22716-1.0391 0.63054l0.16914 2.1535c0.0217 0.27646 0.0521 0.44653 0.0912 0.51033 0.05 0.0842 0.1137 0.14528 0.19113 0.18338 0.0803 0.035 0.23627 0.0469 0.46795 0.036l0.013 0.16048-2.1002 0.0996-0.0118-0.16058 0.0927-4e-3c0.21623-0.0102 0.35753-0.0692 0.42378-0.17673 0.0691-0.11072 0.0923-0.31466 0.0698-0.612l-0.115-1.5163c-0.0372-0.4905-0.0721-0.78883-0.10461-0.89466-0.0295-0.10603-0.0701-0.17722-0.12185-0.21358-0.0487-0.0365-0.11271-0.0529-0.19204-0.0491-0.0854 4e-3 -0.18601 0.0311-0.30176 0.0813-0.0268-0.0524-0.0537-0.1049-0.0805-0.15735 0.40877-0.18629 0.8168-0.37252 1.2241-0.55869l0.19641-9e-3c0.0226 0.28832 0.0453 0.57664 0.0679 0.86496zm4.252-3.2098c0.12692-6e-3 0.23843 0.0336 0.33466 0.11857 0.099 0.0819 0.15451 0.1851 0.16653 0.30975 0.012 0.12466-0.0231 0.23362-0.10546 0.32691-0.0793 0.0932-0.18274 0.1427-0.31007 0.14865-0.12735 6e-3 -0.2407-0.0335-0.33994-0.1183-0.0993-0.0848-0.15461-0.18957-0.16622-0.31426-0.0116-0.12469 0.0225-0.23213 0.10208-0.32231 0.0824-0.0933 0.18847-0.14296 0.31842-0.14901zm0.58124 2.115 0.31499 3.2768c0.0245 0.25527 0.0594 0.42502 0.10473 0.50936 0.0481 0.0812 0.11125 0.14082 0.18942 0.17886 0.0812 0.0379 0.22226 0.0521 0.42305 0.0426l0.0158 0.16024-2.0631 0.0978-0.0146-0.16034c0.20697-0.01 0.3442-0.0357 0.41166-0.0776 0.0675-0.0419 0.11711-0.10841 0.14893-0.19939 0.0349-0.0911 0.0405-0.26282 0.017-0.51518l-0.14683-1.572c-0.0413-0.44229-0.0819-0.72823-0.12151-0.85751-0.0303-0.094-0.0699-0.15774-0.11896-0.19122-0.0494-0.0364-0.11372-0.0528-0.19305-0.0491-0.0854 4e-3 -0.18714 0.0312-0.30518 0.0814-0.0262-0.0524-0.0525-0.10489-0.0787-0.15734 0.40587-0.18604 0.811-0.37203 1.2154-0.55795 0.067-3e-3 0.13399-6e-3 0.20099-9e-3zm4.9629 2.0093c-0.0534 0.55346-0.22889 0.99999-0.52697 1.34-0.29835 0.33699-0.64816 0.53554-1.0482 0.59554-0.47644 0.0714-0.9121-0.0605-1.3052-0.39609-0.39325-0.33565-0.62191-0.83414-0.68807-1.4959-0.0641-0.64077 0.078-1.1909 0.42406-1.6495 0.34916-0.45916 0.79426-0.72953 1.3373-0.81131 0.40727-0.0613 0.75353-5e-3 1.0394 0.16888 0.28556 0.17093 0.44122 0.3705 0.46626 0.59875 0.0124 0.11264-0.0154 0.21021-0.0833 0.29274-0.0652 0.0791-0.16447 0.12869-0.29773 0.14873-0.17869 0.0269-0.31956-9e-3 -0.42247-0.10819-0.0581-0.0546-0.10563-0.16792-0.14252-0.3401-0.0338-0.17265-0.10858-0.29699-0.22407-0.37299-0.11521-0.073-0.26636-0.0955-0.45357-0.0673-0.30195 0.0455-0.53354 0.19178-0.69527 0.43902-0.21479 0.32746-0.29832 0.73019-0.24957 1.2077 0.0497 0.48654 0.2149 0.89835 0.49694 1.2356 0.28475 0.33376 0.63651 0.46925 1.0541 0.40659 0.29873-0.0448 0.55641-0.18442 0.77246-0.41871 0.15275-0.16152 0.28868-0.4335 0.4074-0.81591 0.0463 0.0141 0.0927 0.0283 0.13905 0.0424zm3.0775 0.51443c-0.39137 0.38718-0.64038 0.61464-0.74419 0.68133-0.15624 0.0988-0.32758 0.16215-0.51387 0.19009-0.2901 0.0435-0.54083-0.0168-0.7517-0.1811-0.20786-0.16472-0.32908-0.40412-0.36422-0.71828-0.0222-0.19856 4e-3 -0.37732 0.0791-0.53622 0.10203-0.22024 0.29639-0.44231 0.58268-0.66615 0.28939-0.22435 0.77715-0.5176 1.4621-0.87987l-0.0189-0.15994c-0.0481-0.40571-0.14767-0.67417-0.29838-0.80518-0.14773-0.1315-0.34677-0.1784-0.59738-0.14067-0.19022 0.0286-0.33535 0.10172-0.43553 0.21927-0.1032 0.11801-0.14742 0.24221-0.13249 0.37257 0.0129 0.0855 0.0257 0.17094 0.0386 0.2564 0.0156 0.1363-9e-3 0.24693-0.0729 0.33194-0.0612 0.0846-0.14939 0.13549-0.26451 0.1528-0.11209 0.0169-0.20885-8e-3 -0.29021-0.0739-0.0783-0.0666-0.12496-0.16654-0.13994-0.2999-0.0286-0.25485 0.0782-0.50901 0.31974-0.76235 0.24153-0.25335 0.60184-0.41612 1.0815-0.48835 0.36806-0.0554 0.6769-0.0401 0.92683 0.0458 0.18904 0.065 0.33765 0.18884 0.44581 0.37154 0.0697 0.11911 0.12839 0.37566 0.1759 0.76945l0.16667 1.3813c0.0468 0.38793 0.0832 0.6251 0.10914 0.71168 0.0256 0.0836 0.057 0.13766 0.0941 0.16223 0.0401 0.0241 0.0831 0.0328 0.12885 0.0259 0.0488-7e-3 0.0902-0.0241 0.12427-0.0503 0.0593-0.048 0.16967-0.17471 0.33063-0.37976l0.0305 0.24868c-0.28688 0.49531-0.58702 0.76641-0.8985 0.81312-0.14963 0.0224-0.27475-0.01-0.37524-0.0975-0.10051-0.0874-0.1666-0.25232-0.19843-0.49474-3e-5 2e-5 -5e-5 4e-5 -7e-5 5e-5zm-0.0342-0.28876-0.18373-1.5504c-0.43692 0.2466-0.71805 0.41684-0.84311 0.51104-0.22469 0.16638-0.38066 0.32846-0.4677 0.48619-0.087 0.15773-0.12103 0.32106-0.10177 0.48994 0.0243 0.21336 0.11004 0.38129 0.25739 0.50385 0.147 0.11958 0.306 0.16656 0.47676 0.14094 0.23175-0.0348 0.51961-0.22866 0.86216-0.58151zm2.4215-4.9774 0.16977 1.3361 0.9688-0.14587 0.0403 0.31064-0.96966 0.14596 0.33504 2.6367c0.0335 0.26339 0.0941 0.4352 0.18199 0.5155 0.0909 0.0799 0.19742 0.11062 0.3194 0.0923 0.10062-0.0151 0.19439-0.0593 0.28125-0.13271 0.0865-0.0763 0.14794-0.17755 0.18437-0.30364l0.1782-0.0267c-0.0689 0.30593-0.1914 0.54748-0.36765 0.72472-0.17663 0.17427-0.36894 0.277-0.57658 0.30814-0.14047 0.0211-0.28259 5e-3 -0.42623-0.0492-0.14402-0.0568-0.25674-0.14995-0.3382-0.27945-0.0819-0.13248-0.14104-0.34518-0.17765-0.63823l-0.34162-2.7349-0.657 0.0989-0.018-0.14655c0.15805-0.0901 0.31358-0.22509 0.46637-0.40492 0.15544-0.18323 0.28752-0.39159 0.39624-0.62511 0.0551-0.12284 0.1256-0.34317 0.211-0.66059 0.0466-7e-3 0.0932-0.014 0.13985-0.0211zm2.2953-1.2738c0.12596-0.019 0.23837 9e-3 0.33734 0.0849 0.10157 0.0722 0.16082 0.17035 0.17763 0.29453 0.0168 0.12419-0.0138 0.23742-0.092 0.33973-0.0752 0.10185-0.17596 0.1623-0.30223 0.18134-0.12627 0.019-0.24045-9e-3 -0.34242-0.0841s-0.16114-0.17481-0.17763-0.29903c-0.0165-0.12422 0.0131-0.23579 0.0887-0.33468 0.0782-0.1023 0.18169-0.16318 0.31063-0.18263zm0.66051 2.0682 0.44123 3.2644c0.0344 0.25431 0.0756 0.42156 0.12379 0.50183 0.0508 0.0768 0.11567 0.13047 0.19454 0.16088 0.0819 0.03 0.22205 0.0301 0.42041 3e-4l0.0219 0.15964-2.0379 0.30563-0.0209-0.15974c0.20446-0.0307 0.33925-0.0705 0.40434-0.11945 0.0651-0.049 0.11157-0.12079 0.13943-0.21548 0.0309-0.0951 0.0296-0.26837-4e-3 -0.51978l-0.20826-1.566c-0.0586-0.44062-0.1102-0.72406-0.15469-0.85006-0.0338-0.0914-0.0757-0.15152-0.12565-0.18019-0.0505-0.0316-0.11494-0.0415-0.1935-0.0297-0.0846 0.0127-0.18444 0.0504-0.29953 0.11297-0.0281-0.0501-0.0563-0.10012-0.0844-0.15019 0.39524-0.22841 0.78989-0.45676 1.184-0.68506 0.0664-0.01 0.13272-0.02 0.19908-0.03zm3.1724-0.47773c0.62754-0.0945 1.1653 0.063 1.6156 0.47225 0.38271 0.34994 0.61376 0.78329 0.69133 1.3 0.0545 0.36317 0.0202 0.74423-0.10387 1.1432-0.12406 0.39905-0.33086 0.71682-0.62044 0.95347-0.28649 0.23617-0.62405 0.38337-1.0119 0.44153-0.63221 0.0948-1.1695-0.0736-1.6095-0.50548-0.37143-0.36375-0.59169-0.8013-0.66254-1.3127-0.0516-0.37245-9e-3 -0.75609 0.12789-1.1508 0.13916-0.39811 0.35033-0.70758 0.63359-0.92827 0.28288-0.22367 0.59594-0.36137 0.93988-0.41316zm-0.0988 0.30918c-0.16004 0.0241-0.31478 0.0957-0.46442 0.21479-0.14703 0.11569-0.25391 0.29778-0.32073 0.54624-0.0668 0.24845-0.0745 0.55599-0.0229 0.92241 0.0833 0.59112 0.27501 1.0827 0.57653 1.4752 0.30452 0.39189 0.65578 0.55802 1.0525 0.49852 0.29599-0.0444 0.52294-0.19918 0.68028-0.46428 0.1574-0.26519 0.19321-0.68548 0.10815-1.2615-0.10641-0.72048-0.34958-1.2638-0.72739-1.6295-0.25613-0.25126-0.54988-0.35192-0.88202-0.30192z" aria-label="Communicatio"/><path transform="translate(-.14252 -.67103)" d="m75.126 268.99-0.0405 1.7686c-0.0087 0.38207 0.02728 0.62028 0.10803 0.7146 0.10947 0.13376 0.27814 0.20309 0.50604 0.20801l0.23087 5e-3 -0.0039 0.16566-2.5792-0.0557 0.0036-0.16567 0.22643 5e-3c0.25455 5e-3 0.43841-0.0742 0.55164-0.23896 0.06125-0.0913 0.09574-0.31002 0.10343-0.65627l0.0871-3.9223c0.0085-0.38208-0.02637-0.62024-0.1046-0.71452-0.11305-0.13385-0.28408-0.20325-0.51305-0.2082l-0.22748-5e-3 0.0036-0.16568 2.2171 0.0479c0.54127 0.0117 0.9667 0.0776 1.2762 0.19781 0.30955 0.11719 0.56804 0.31092 0.77541 0.58119 0.20738 0.27027 0.30636 0.58745 0.29717 0.95159-0.0125 0.49546-0.18599 0.8949-0.52006 1.1982-0.33112 0.30344-0.7931 0.44875-1.3863 0.43594-0.14533-3e-3 -0.30228-0.017-0.47086-0.0415-0.16858-0.0246-0.34878-0.0598-0.54063-0.1058h3e-6zm0.0058-0.25521c0.15656 0.0333 0.29548 0.0587 0.41677 0.0762 0.12129 0.0176 0.22495 0.0273 0.31098 0.0291 0.30853 7e-3 0.57687-0.107 0.8052-0.34098 0.23136-0.23689 0.35181-0.54638 0.36113-0.92842 0.0064-0.26267-0.04111-0.50708-0.14265-0.73326-0.10147-0.22915-0.24898-0.40107-0.44255-0.51575-0.19349-0.11767-0.41514-0.1792-0.66489-0.1846-0.15163-3e-3 -0.34704 0.0209-0.58617 0.0725-0.01927 0.84174-0.03855 1.6835-0.05782 2.5252zm4.7073-1.0227-0.0246 0.92224c0.35765-0.60746 0.71652-0.90729 1.0758-0.89953 0.16333 4e-3 0.29704 0.0572 0.40111 0.16097 0.10415 0.1008 0.15437 0.21685 0.15069 0.34817-0.0033 0.1164-0.0446 0.21405-0.12401 0.29296-0.07941 0.0789-0.17251 0.11722-0.27934 0.11491-0.10386-2e-3 -0.21966-0.0555-0.34747-0.1598-0.12475-0.10721-0.21832-0.1615-0.28065-0.16284-0.05343-1e-3 -0.11212 0.0274-0.17606 0.0858-0.13686 0.11948-0.28027 0.31796-0.43015 0.59543l-0.05243 1.9654c-0.0061 0.22682 0.0175 0.39905 0.07064 0.51666 0.03633 0.0814 0.10262 0.15004 0.19886 0.20587 0.09624 0.0558 0.2361 0.0857 0.41961 0.0897l-0.0044 0.16116-2.082-0.0449 0.0041-0.16117c0.20719 4e-3 0.36194-0.025 0.46429-0.0885 0.07524-0.0462 0.12903-0.12118 0.16136-0.22497 0.01612-0.0504 0.0273-0.19499 0.03353-0.43378l0.04145-1.5893c0.01246-0.47755 0.0095-0.76129-9e-3 -0.85129-0.01539-0.0929-0.04926-0.16084-0.1016-0.20378-0.04937-0.0429-0.11265-0.0651-0.18982-0.0668-0.09201-2e-3 -0.19648 0.0182-0.31337 0.0604-0.01347-0.054-0.02694-0.10809-0.04041-0.16213 0.41539-0.15826 0.83094-0.31652 1.2467-0.47478 0.06236 1e-3 0.12473 3e-3 0.1871 4e-3zm3.8397 0.083c0.32476 7e-3 0.61391 0.0785 0.86734 0.21438 0.22583 0.12672 0.42345 0.3054 0.59306 0.53597 0.3036 0.41529 0.45033 0.88423 0.43718 1.4063-0.0092 0.36702-0.10596 0.7351-0.29159 1.1042-0.18565 0.36915-0.4368 0.6431-0.75355 0.82204-0.0345 0.0197-0.0694 0.0382-0.10472 0.0555-0.28289 0.14529-0.5915 0.21433-0.92598 0.20712-0.61255-0.0132-1.0921-0.26993-1.4393-0.77016-0.29312-0.4214-0.43265-0.8903-0.4181-1.4066 0.0106-0.37603 0.113-0.7471 0.30747-1.1132 0.19752-0.36903 0.45026-0.63829 0.75821-0.80783 0.30802-0.17253 0.6314-0.25513 0.96993-0.24781zm-0.14672 0.28798c-0.15735-3e-3 -0.3176 0.0409-0.4807 0.13296-0.16004 0.0891-0.29245 0.2505-0.39721 0.48416-0.10476 0.23365-0.16243 0.53549-0.1731 0.90557-0.01722 0.59685 0.08504 1.1142 0.30638 1.552 0.22431 0.43785 0.52867 0.66092 0.91346 0.66922 0.28711 6e-3 0.52749-0.10807 0.72129-0.34278 0.0063-8e-3 0.01259-0.0155 0.01874-0.0236 0.18337-0.23507 0.28264-0.6337 0.29909-1.1967 0.01593-0.54544-0.05805-1.0076-0.22037-1.3857-0.05474-0.12554-0.11959-0.24153-0.19456-0.34799-0.20203-0.29104-0.46645-0.44009-0.79302-0.44715zm3.7217 2.5662c-0.2475-0.13212-0.4357-0.30967-0.56476-0.53275-0.129-0.22606-0.19041-0.47182-0.18491-0.73738 0.0084-0.40574 0.16617-0.74899 0.47117-1.0294 0.30799-0.28033 0.69552-0.4111 1.1645-0.39234 0.38397 0.0154 0.71557 0.12413 0.99586 0.32629l0.85423 0.0341c0.12622 5e-3 0.1996 0.0124 0.22013 0.0222 0.02053 7e-3 0.03518 0.0193 0.04395 0.0375 0.01755 0.0275 0.02625 0.0756 0.0261 0.14422-1.76e-4 0.0775-0.0076 0.13095-0.02242 0.16019-0.0089 0.0146-0.02506 0.0258-0.04861 0.0338-0.02061 8e-3 -0.09416 0.01-0.22063 5e-3l-0.52503-0.0209c0.16333 0.22127 0.24459 0.49907 0.2429 0.8331-0.0019 0.38186-0.14835 0.70265-0.44116 0.96274-0.29274 0.26001-0.68519 0.38044-1.1759 0.36122-0.20218-8e-3 -0.40844-0.0459-0.61849-0.11382-0.13258 0.10825-0.22352 0.2047-0.27263 0.28936-0.04608 0.0818-0.06968 0.15252-0.07073 0.21219-8.88e-4 0.0507 0.02209 0.10086 0.06897 0.15048 0.04987 0.0497 0.14622 0.0878 0.28907 0.11427 0.08334 0.0152 0.292 0.0338 0.62603 0.0558 0.61438 0.0389 1.0126 0.0753 1.1944 0.10922 0.27724 0.0496 0.49762 0.1611 0.66137 0.33454 0.16672 0.17351 0.25012 0.38262 0.2495 0.62718-8.53e-4 0.33707-0.16056 0.64704-0.48122 0.9301-0.47187 0.41742-1.0889 0.61169-1.8474 0.58267-0.58312-0.0223-1.0735-0.17093-1.4691-0.44591-0.22306-0.15787-0.33242-0.31737-0.32882-0.47849 0.0016-0.0716 0.01974-0.14259 0.05438-0.21293 0.05356-0.10847 0.16203-0.25798 0.32505-0.44881 0.02154-0.026 0.17804-0.18124 0.46768-0.46559-0.15387-0.0985-0.26287-0.18489-0.32717-0.25905-0.06126-0.077-0.0909-0.16179-0.08901-0.25428 0.0021-0.10444 0.04642-0.22513 0.13262-0.36212 0.08922-0.13692 0.28956-0.32751 0.59999-0.57217v1.1e-4zm0.80846-2.48c-0.21715-9e-3 -0.40029 0.0721-0.55 0.24224-0.14966 0.17011-0.22793 0.43731-0.2341 0.80124-8e-3 0.4715 0.08619 0.84074 0.28392 1.1083 0.15117 0.20297 0.3459 0.30911 0.5835 0.31844 0.22572 9e-3 0.41238-0.0689 0.55942-0.23321 0.14709-0.16439 0.2219-0.4284 0.22512-0.79239 0.0042-0.4742-0.09437-0.84983-0.29429-1.1263-0.14784-0.20286-0.33881-0.30898-0.57356-0.31836zm-0.87868 3.973c-0.14326 0.14671-0.25221 0.28429-0.32663 0.41279-0.07442 0.1285-0.11279 0.24794-0.11491 0.35834-0.0028 0.14323 0.08195 0.27189 0.25456 0.38602 0.29759 0.19657 0.73162 0.30576 1.3012 0.32764 0.54245 0.0208 0.94252-0.0593 1.1994-0.24034 0.25991-0.17797 0.38976-0.37431 0.39064-0.58909 6.38e-4 -0.15509-0.07539-0.26843-0.22779-0.33996-0.15542-0.0716-0.46358-0.12238-0.92447-0.15221-0.67346-0.0441-1.1908-0.0984-1.552-0.16319zm4.7201-4.0343 0.0053 0.92153c0.23987-0.43011 0.48361-0.70264 0.73283-0.8176 0.09893-0.0555 0.19873-0.0861 0.29951-0.0921 0.16118-9e-3 0.29508 0.0334 0.40193 0.12861 0.10681 0.0922 0.1612 0.20393 0.16296 0.33513 0.0016 0.11631-0.03532 0.21694-0.11077 0.30193-0.07544 0.085-0.1662 0.13058-0.27214 0.13677-0.103 6e-3 -0.21984-0.0379-0.35024-0.13169-0.04623-0.0352-0.08812-0.0637-0.12568-0.0857-0.06605-0.045-0.11871-0.0683-0.15806-0.0699-0.05292-2e-3 -0.10999 0.0254-0.1713 0.0827-0.13142 0.117-0.26686 0.31285-0.40686 0.58757l0.01124 1.9638c0.0013 0.22668 0.03059 0.39922 0.08804 0.51776 0.03931 0.082 0.10844 0.1518 0.20746 0.20932 0.09901 0.0575 0.24126 0.0899 0.42664 0.0971l0.0015 0.16103-2.1051-0.0817 1.56e-4 -0.16106c0.20931 8e-3 0.36478-0.0186 0.46631-0.0803 0.07466-0.0448 0.12679-0.11886 0.15643-0.22206 0.01483-0.0501 0.02197-0.19443 0.02145-0.43307l-0.0034-1.5882c-1e-3 -0.47713-0.01197-0.76101-0.03274-0.85124-0.01785-0.0932-0.05328-0.16167-0.10627-0.20553-0.05006-0.0437-0.11328-0.0671-0.18972-0.0702-0.09114-4e-3 -0.19402 0.0147-0.30876 0.0548-0.01465-0.0543-0.0293-0.10854-0.04393-0.16282 0.40719-0.15081 0.81338-0.3016 1.2186-0.45237 0.06156 2e-3 0.12312 5e-3 0.18468 7e-3zm2.5262 1.5902c0.0077 0.60865 0.16234 1.077 0.46652 1.4058 0.30402 0.3287 0.65821 0.48142 1.0605 0.45818 0.26817-0.0155 0.49877-0.10198 0.6912-0.25946 0.19536-0.16065 0.35459-0.4237 0.47741-0.7893 0.04687 0.0272 0.09375 0.0543 0.14066 0.0815-0.04989 0.41218-0.21993 0.79533-0.5118 1.1497-0.29192 0.35136-0.66612 0.54013-1.1205 0.56631-0.49328 0.0284-0.92047-0.13807-1.2788-0.49946-0.35557-0.36469-0.53648-0.87019-0.54594-1.5174-0.01025-0.70056 0.15922-1.257 0.50497-1.6681 0.34883-0.41445 0.78846-0.63732 1.3218-0.66862 0.45129-0.0265 0.82569 0.10383 1.1251 0.39095 0.29918 0.28404 0.45756 0.67977 0.47299 1.1866-0.93466 0.0545-1.8693 0.10891-2.804 0.16336zm-0.0045-0.25943 1.8759-0.10944c-0.02161-0.26152-0.05736-0.44464-0.10719-0.54922-0.07785-0.16267-0.19138-0.28744-0.34051-0.37426-0.14621-0.087-0.29841-0.12584-0.45688-0.11655-0.24358 0.0143-0.46011 0.12401-0.65037 0.32919-0.18733 0.20198-0.29455 0.47551-0.32098 0.82028h-1e-6zm5.8964-1.7521 0.0628 1.3955-0.146 9e-3c-0.1315-0.43174-0.28856-0.72155-0.47145-0.86923-0.17999-0.14789-0.4047-0.21392-0.6746-0.19809-0.20539 0.012-0.36903 0.0769-0.49121 0.19465-0.12218 0.11772-0.181 0.24368-0.17616 0.37786 6e-3 0.16699 0.05825 0.30735 0.15695 0.42113 0.09585 0.11691 0.28644 0.23579 0.5723 0.3566 0.21969 0.0933 0.43969 0.18658 0.66001 0.27987 0.6125 0.26018 0.9321 0.63199 0.95452 1.115 0.0173 0.37278-0.10999 0.68199-0.38341 0.928-0.27051 0.2428-0.5813 0.37428-0.93108 0.39442-0.25111 0.0145-0.53994-0.0137-0.86586-0.0846-0.09968-0.0241-0.18085-0.0344-0.24358-0.0308-0.0687 4e-3 -0.12112 0.0458-0.1573 0.12558l-0.14794 9e-3 -0.04936-1.4626 0.14696-9e-3c0.09751 0.41269 0.26767 0.71796 0.51104 0.91612 0.2433 0.19811 0.51178 0.28873 0.8044 0.27186 0.20603-0.0119 0.37082-0.0812 0.49404-0.20784 0.12609-0.12984 0.18527-0.27971 0.17789-0.44968-9e-3 -0.20573-0.0894-0.37448-0.24085-0.50617-0.14857-0.13192-0.44244-0.29266-0.88044-0.48243-0.4379-0.18972-0.72568-0.36721-0.86464-0.5324-0.13889-0.16225-0.21244-0.37302-0.22117-0.63247-0.01134-0.3369 0.09257-0.6254 0.31055-0.86522 0.22095-0.24004 0.51112-0.37064 0.87157-0.3918 0.15825-9e-3 0.35153 0.0137 0.58016 0.0691 0.15141 0.036 0.25211 0.0525 0.30197 0.0496 0.04695-3e-3 0.08316-0.0153 0.1086-0.0377 0.0255-0.0224 0.0542-0.0705 0.0863-0.14407 0.0483-3e-3 0.0967-6e-3 0.14502-9e-3zm3.5279-0.18 0.0706 1.3955-0.14669 7e-3c-0.13483-0.4332-0.29524-0.72476-0.4812-0.87471-0.18297-0.15007-0.41091-0.21889-0.68373-0.20647-0.20757 9e-3 -0.37227 0.0722-0.49407 0.18838-0.1218 0.11613-0.17921 0.24128-0.17226 0.37546 9e-3 0.16697 0.0635 0.30793 0.16448 0.42289 0.0982 0.11806 0.29158 0.23926 0.58011 0.36361 0.22173 0.096 0.44343 0.19201 0.66508 0.28802 0.61644 0.26782 0.93656 0.64326 0.96092 1.1263 0.0188 0.37273-0.10663 0.68032-0.37607 0.92271-0.26664 0.23928-0.57292 0.3668-0.91903 0.38256-0.24848 0.0113-0.53476-0.0205-0.8589-0.0954-0.0563-0.0144-0.10659-0.0243-0.15094-0.0296-0.0341-4e-3 -0.0647-5e-3 -0.0919-3e-3 -0.0687 4e-3 -0.12049 0.0458-0.15541 0.12558l-0.14795 9e-3 -0.0731-1.4625 0.14696-9e-3c0.0665 0.263 0.16177 0.48238 0.28608 0.65824 0.0703 0.10087 0.14986 0.18776 0.2386 0.26067 0.24472 0.20107 0.51199 0.295 0.80194 0.2818 0.20414-9e-3 0.36677-0.0765 0.48793-0.20154 0.12396-0.12818 0.18165-0.27725 0.17301-0.44721-0.0105-0.20576-0.0918-0.3754-0.24396-0.50894-0.14925-0.13367-0.44403-0.29809-0.88449-0.49322-0.27371-0.12126-0.48989-0.23705-0.64849-0.34739-0.0965-0.0661-0.17157-0.13036-0.22525-0.19291-0.14165-0.16223-0.21869-0.37299-0.23164-0.63243-0.0168-0.33689 0.0825-0.62537 0.29679-0.86518 0.0222-0.0245 0.0452-0.0479 0.0688-0.0701 0.21044-0.19268 0.47947-0.29648 0.80699-0.3114 0.16015-7e-3 0.35618 0.0182 0.58803 0.0763 0.15353 0.0378 0.25549 0.0556 0.3059 0.0533 0.0475-2e-3 0.084-0.0143 0.10963-0.0363 0.0256-0.0221 0.0544-0.0698 0.0863-0.14291 0.049-2e-3 0.0979-5e-3 0.14685-7e-3zm4.4901-0.0834 0.119 2.4828c0.0227 0.47418 0.047 0.76449 0.0729 0.8709 0.0287 0.1033 0.0677 0.17476 0.11704 0.21436 0.0523 0.0395 0.11098 0.0577 0.17611 0.0547 0.0917-4e-3 0.1941-0.0342 0.30709-0.0901 0.0232 0.0512 0.0464 0.10249 0.0696 0.15374-0.39738 0.18696-0.79464 0.37391-1.1918 0.56086l-0.19967 9e-3 -0.042-0.86783c-0.33078 0.39764-0.5853 0.6498-0.76394 0.75657-0.17861 0.10676-0.36995 0.16479-0.57406 0.17408-0.22778 0.0104-0.42921-0.0462-0.60434-0.16975-0.17233-0.12665-0.29625-0.29287-0.37175-0.49864s-0.12273-0.49952-0.14175-0.88121l-0.0911-1.8295c-0.01-0.19383-0.0371-0.32707-0.0823-0.39973-0.0452-0.0727-0.11032-0.12648-0.19528-0.16146-0.0821-0.0381-0.2299-0.0508-0.44325-0.0381l-8e-3 -0.16548 1.4279-0.065 0.13539 2.742c0.0188 0.3817 0.0963 0.62924 0.23243 0.74259 0.13904 0.11322 0.30176 0.16559 0.48819 0.1571 0.12724-6e-3 0.26878-0.0526 0.42466-0.14038 0.15885-0.0879 0.34374-0.25026 0.55478-0.48702l-0.11229-2.3217c-0.0113-0.23261-0.0618-0.38722-0.1517-0.46383-0.0871-0.0797-0.26419-0.11648-0.53136-0.1103l-8e-3 -0.1655 1.3878-0.0633zm3.611-0.2855 0.0639 1.3959-0.14669 7e-3c-0.13272-0.43331-0.29169-0.72495-0.47687-0.87493-0.18223-0.15011-0.40978-0.21895-0.6826-0.20653-0.20757 9e-3 -0.37254 0.0723-0.49488 0.18841-0.12233 0.11616-0.18032 0.24135-0.17402 0.37556 8e-3 0.16701 0.062 0.30801 0.16241 0.42299 0.0976 0.1181 0.29037 0.23933 0.57823 0.36372 0.22123 0.096 0.44241 0.19206 0.66355 0.28809 0.61502 0.2679 0.93326 0.64343 0.95529 1.1266 0.017 0.37283-0.10988 0.68049-0.38042 0.92294-0.26773 0.23934-0.57457 0.36689-0.92067 0.38264-0.24848 0.0113-0.53454-0.0205-0.85824-0.0954-0.099-0.0254-0.17962-0.0367-0.24174-0.0338-0.068 3e-3 -0.11948 0.0443-0.15428 0.12359l-0.14643 7e-3 -0.0691-1.4629 0.14656-7e-3c0.10259 0.41376 0.27576 0.72121 0.51945 0.92231 0.2437 0.20112 0.51046 0.29508 0.80041 0.28188 0.20414-9e-3 0.36706-0.0765 0.4888-0.20158 0.12456-0.12821 0.18295-0.27732 0.17513-0.44733-9e-3 -0.2058-0.0899-0.37549-0.24148-0.50906-0.14856-0.13371-0.44249-0.29818-0.88192-0.49336-0.43944-0.19519-0.72998-0.37623-0.87145-0.54314-0.14133-0.16392-0.21816-0.37562-0.23042-0.63509-0.0159-0.33702 0.0849-0.62404 0.30254-0.8611 0.22062-0.2372 0.5134-0.36411 0.8782-0.38072 0.16015-7e-3 0.35601 0.0181 0.58753 0.0764 0.15332 0.0379 0.25517 0.0556 0.30559 0.0533 0.0474-2e-3 0.084-0.0143 0.10977-0.0363 0.0257-0.0221 0.0547-0.0698 0.087-0.14295 0.0489-2e-3 0.0979-5e-3 0.14686-7e-3z" aria-label="Progressus"/></g></g></g></svg>
