<?xml version="1.0" encoding="UTF-8" standalone="no"?>
<!-- Created with Inkscape (http://www.inkscape.org/) -->

<svg
   width="181.01828mm"
   height="229.77081mm"
   viewBox="0 0 181.01828 229.77081"
   version="1.1"
   id="svg1"
   inkscape:version="1.3.2 (091e20ef0f, 2023-11-25, custom)"
   sodipodi:docname="acp-crest.svg"
   inkscape:export-filename="shield.png"
   inkscape:export-xdpi="171.04378"
   inkscape:export-ydpi="171.04378"
   xmlns:inkscape="http://www.inkscape.org/namespaces/inkscape"
   xmlns:sodipodi="http://sodipodi.sourceforge.net/DTD/sodipodi-0.dtd"
   xmlns="http://www.w3.org/2000/svg"
   xmlns:svg="http://www.w3.org/2000/svg">
  <sodipodi:namedview
     id="namedview1"
     pagecolor="#ffffff"
     bordercolor="#000000"
     borderopacity="0.25"
     inkscape:showpageshadow="2"
     inkscape:pageopacity="0.0"
     inkscape:pagecheckerboard="0"
     inkscape:deskcolor="#d1d1d1"
     inkscape:document-units="mm"
     inkscape:zoom="0.87021393"
     inkscape:cx="-63.777421"
     inkscape:cy="374.04596"
     inkscape:window-width="3362"
     inkscape:window-height="1402"
     inkscape:window-x="0"
     inkscape:window-y="0"
     inkscape:window-maximized="1"
     inkscape:current-layer="layer1"
     inkscape:clip-to-page="false" />
  <defs
     id="defs1" />
  <g
     inkscape:label="Layer 1"
     inkscape:groupmode="layer"
     id="layer1"
     transform="translate(-14.191141,-19.338552)">
    <path
       id="path5"
       d="M 124.84266,233.14395 104.70028,245.61118 84.557901,233.14395 C 43.368874,207.64247 18.305191,162.65215 18.305191,114.2092 V 56.364935 L 104.70028,23.452573 191.09537,56.364935 V 114.2092 c 0,48.44295 -25.06369,93.43327 -66.25271,118.93475 z"
       style="fill:none;stroke:#000000;stroke-width:4;stroke-linecap:round;stroke-linejoin:round;stroke-miterlimit:10;stroke-dasharray:none;stroke-opacity:1" />
    <path
       id="path6"
       d="m 32.551555,62.284598 72.149675,-25.464525 72.14969,25.464525 v 56.088452 c 0,48.66108 -28.10354,92.94928 -72.13261,113.66897 l -0.0182,0.006 -0.0181,-0.006 C 60.65318,211.32233 32.54964,167.03413 32.54964,118.37305 Z"
       style="fill:none;stroke:#000000;stroke-width:4.126;stroke-linecap:round;stroke-linejoin:round;stroke-miterlimit:10;stroke-dasharray:none;stroke-opacity:1" />
    <path
       style="font-size:42.3333px;line-height:1.25;font-family:Hack;-inkscape-font-specification:Hack;letter-spacing:0.79375px;stroke-width:0.265"
       d="m 76.497373,158.20529 h 5.064286 l 9.446445,30.86115 h -4.320146 l -2.273762,-8.04085 H 73.603495 l -2.23242,8.04085 h -4.320147 z m 6.924637,19.47167 -4.402829,-15.79231 -4.402829,15.79231 z m 26.44591,-0.28939 H 94.302992 v -3.51399 h 15.564928 l -5.41568,-5.41569 h 4.69221 l 7.17269,7.17268 -7.17269,7.17269 h -4.69221 z m 12.41061,-19.18228 h 9.13638 q 4.71289,0 7.29671,2.04639 2.56315,2.04638 2.56315,5.80843 0,1.44694 -0.3514,2.56315 -0.3514,1.09554 -0.99219,1.88102 -0.66146,0.78548 -1.67431,1.32291 -1.01286,0.51677 -2.39779,0.72347 3.05924,0.45475 4.7749,2.58382 1.71566,2.12907 1.71566,5.4777 0,4.17545 -2.74919,6.30452 -2.76985,2.14974 -8.18554,2.14974 h -9.13638 z m 9.0537,12.73307 q 3.05924,0 4.38216,-1.17822 1.34358,-1.15756 1.34358,-3.65869 0,-2.41846 -1.32291,-3.43132 -1.34359,-1.03352 -4.40283,-1.03352 h -4.85758 v 9.30175 z m 0.0827,14.69676 q 3.59668,0 5.18831,-1.28157 1.55029,-1.28157 1.55029,-4.17545 0,-3.0179 -1.63297,-4.44417 -1.65364,-1.4056 -5.10563,-1.4056 h -4.94026 v 11.30679 z"
       id="text1"
       aria-label="A➔B" />
    <g
       id="g1"
       transform="matrix(0.72920005,0,0,0.72920005,-9.5326573,-11.524669)"
       style="stroke:#000000">
      <path
         id="path3"
         d="M 111.67736,186.94977 H 81.23193 c 4.052711,-11.40534 -5.079648,-37.83855 -5.079648,-37.83855 -4.628797,-12.02373 -3.813528,-28.61346 14.034559,-35.39985 22.167149,-8.42962 34.309759,4.90079 34.309759,4.90079 0,0 5.84447,6.03321 5.65538,18.47498 0,0 -2.26201,5.27861 0,9.80299 l 4.52508,5.93795 c 0,0 3.67559,4.80805 -3.84422,5.75021 0,0 -0.58632,1.13069 0.16828,3.4877 0,0 -0.28328,1.97898 -1.97979,2.35642 0,0 0.84843,0.65941 0.56585,1.97915 0,0 -1.32009,1.2252 -1.41464,1.9794 0,0 0.12277,5.95136 -0.5655,7.06978 -0.75389,1.22505 -5.37245,6.31539 -19.32234,1.22505 0,0 0.47131,6.97523 3.39266,10.27398 z"
         style="fill:none;stroke:#000000;stroke-width:1.1311;stroke-linecap:butt;stroke-linejoin:round;stroke-miterlimit:10;stroke-dasharray:none;stroke-opacity:1" />
      <path
         id="path4"
         d="m 75.287624,127.7798 h 6.604353 v -4.92548"
         style="fill:none;stroke:#000000;stroke-width:0.565552;stroke-linecap:butt;stroke-linejoin:round;stroke-miterlimit:10;stroke-dasharray:none;stroke-opacity:1" />
      <path
         id="path5-6"
         d="M 74.718593,129.52781 H 85.190802"
         style="fill:none;stroke:#000000;stroke-width:0.565552;stroke-linecap:butt;stroke-linejoin:round;stroke-miterlimit:10;stroke-dasharray:none;stroke-opacity:1" />
      <path
         id="path6-2"
         d="M 74.302315,131.25255 H 87.64155 v 5.17454"
         style="fill:none;stroke:#000000;stroke-width:0.565552;stroke-linecap:butt;stroke-linejoin:round;stroke-miterlimit:10;stroke-dasharray:none;stroke-opacity:1" />
      <path
         id="path7"
         d="m 73.803488,138.31727 h 7.168445"
         style="fill:none;stroke:#000000;stroke-width:0.565552;stroke-linecap:butt;stroke-linejoin:round;stroke-miterlimit:10;stroke-dasharray:none;stroke-opacity:1" />
      <path
         id="path8"
         d="m 73.83806,134.63321 h 8.61942"
         style="fill:none;stroke:#000000;stroke-width:0.565552;stroke-linecap:butt;stroke-linejoin:round;stroke-miterlimit:10;stroke-dasharray:none;stroke-opacity:1" />
      <path
         id="path9"
         d="m 74.013038,140.67524 h 17.493898 v -6.83542"
         style="fill:none;stroke:#000000;stroke-width:0.565552;stroke-linecap:butt;stroke-linejoin:round;stroke-miterlimit:10;stroke-dasharray:none;stroke-opacity:1" />
      <path
         id="path10"
         d="M 74.453304,143.32637 H 87.264783"
         style="fill:none;stroke:#000000;stroke-width:0.565552;stroke-linecap:butt;stroke-linejoin:round;stroke-miterlimit:10;stroke-dasharray:none;stroke-opacity:1" />
      <path
         id="path11"
         d="m 95.385022,112.0706 v 6.25934"
         style="fill:none;stroke:#000000;stroke-width:0.565552;stroke-linecap:butt;stroke-linejoin:round;stroke-miterlimit:10;stroke-dasharray:none;stroke-opacity:1" />
      <path
         id="path12"
         d="m 97.945836,111.51674 v 4.17372 h 5.531554"
         style="fill:none;stroke:#000000;stroke-width:0.565552;stroke-linecap:butt;stroke-linejoin:round;stroke-miterlimit:10;stroke-dasharray:none;stroke-opacity:1" />
      <path
         id="path13"
         d="m 106.49329,110.91702 v 9.20397 h -6.880579"
         style="fill:none;stroke:#000000;stroke-width:0.565552;stroke-linecap:butt;stroke-linejoin:round;stroke-miterlimit:10;stroke-dasharray:none;stroke-opacity:1" />
      <path
         id="path14"
         d="m 108.76306,111.2123 v 11.35909 h 5.64833"
         style="fill:none;stroke:#000000;stroke-width:0.565552;stroke-linecap:butt;stroke-linejoin:round;stroke-miterlimit:10;stroke-dasharray:none;stroke-opacity:1" />
      <path
         id="path15"
         d="m 110.57705,111.51674 v 7.66093 h 4.77625"
         style="fill:none;stroke:#000000;stroke-width:0.565552;stroke-linecap:butt;stroke-linejoin:round;stroke-miterlimit:10;stroke-dasharray:none;stroke-opacity:1" />
      <path
         id="path16"
         d="m 119.31465,114.74396 v 9.9007 h -6.3493"
         style="fill:none;stroke:#000000;stroke-width:0.565552;stroke-linecap:butt;stroke-linejoin:round;stroke-miterlimit:10;stroke-dasharray:none;stroke-opacity:1" />
      <path
         id="path17"
         d="m 90.477178,113.60378 v 7.55368 h -3.212395"
         style="fill:none;stroke:#000000;stroke-width:0.565552;stroke-linecap:butt;stroke-linejoin:round;stroke-miterlimit:10;stroke-dasharray:none;stroke-opacity:1" />
      <path
         id="path18"
         d="m 120.86969,115.69046 v 11.31111 h 2.21298"
         style="fill:none;stroke:#000000;stroke-width:0.565552;stroke-linecap:butt;stroke-linejoin:round;stroke-miterlimit:10;stroke-dasharray:none;stroke-opacity:1" />
      <path
         id="path19"
         d="m 89.433308,143.45019 c 0,0.59831 -0.485069,1.08373 -1.084086,1.08373 -0.598664,0 -1.084439,-0.48542 -1.084439,-1.08373 0,-0.59937 0.485775,-1.08444 1.084439,-1.08444 0.599017,0 1.084086,0.48507 1.084086,1.08444 z"
         style="fill:none;stroke:#000000;stroke-width:0.565552;stroke-linecap:butt;stroke-linejoin:round;stroke-miterlimit:10;stroke-dasharray:none;stroke-opacity:1" />
      <path
         id="path20"
         d="m 86.827338,152.05091 c 0,0.59902 -0.485069,1.08409 -1.083733,1.08409 -0.599017,0 -1.084792,-0.48507 -1.084792,-1.08409 0,-0.59831 0.485775,-1.08444 1.084792,-1.08444 0.598664,0 1.083733,0.48613 1.083733,1.08444 z"
         style="fill:none;stroke:#000000;stroke-width:0.565552;stroke-linecap:butt;stroke-linejoin:round;stroke-miterlimit:10;stroke-dasharray:none;stroke-opacity:1" />
      <path
         id="path21"
         d="m 96.266967,154.21944 c 0,0.59831 -0.48507,1.08373 -1.084086,1.08373 -0.598664,0 -1.084439,-0.48542 -1.084439,-1.08373 0,-0.59902 0.485775,-1.08409 1.084439,-1.08409 0.599016,0 1.084086,0.48507 1.084086,1.08409 z"
         style="fill:none;stroke:#000000;stroke-width:0.565552;stroke-linecap:butt;stroke-linejoin:round;stroke-miterlimit:10;stroke-dasharray:none;stroke-opacity:1" />
      <path
         id="path22"
         d="m 90.701544,164.42283 c 0,0.59835 -0.485069,1.08342 -1.083733,1.08342 -0.597959,0 -1.084439,-0.48507 -1.084439,-1.08342 0,-0.59902 0.48648,-1.08409 1.084439,-1.08409 0.598664,0 1.083733,0.48507 1.083733,1.08409 z"
         style="fill:none;stroke:#000000;stroke-width:0.565552;stroke-linecap:butt;stroke-linejoin:round;stroke-miterlimit:10;stroke-dasharray:none;stroke-opacity:1" />
      <path
         id="path23"
         d="m 85.709738,162.25434 c 0,0.59891 -0.484364,1.0844 -1.083733,1.0844 -0.599017,0 -1.084792,-0.48549 -1.084792,-1.0844 0,-0.59873 0.485775,-1.08409 1.084792,-1.08409 0.599369,0 1.083733,0.48536 1.083733,1.08409 z"
         style="fill:none;stroke:#000000;stroke-width:0.565552;stroke-linecap:butt;stroke-linejoin:round;stroke-miterlimit:10;stroke-dasharray:none;stroke-opacity:1" />
      <path
         id="path24"
         d="m 96.771792,173.3298 c 0,0.59835 -0.48507,1.08366 -1.084439,1.08366 -0.598664,0 -1.083734,-0.48531 -1.083734,-1.08366 0,-0.59877 0.48507,-1.08455 1.083734,-1.08455 0.599369,0 1.084439,0.48578 1.084439,1.08455 z"
         style="fill:none;stroke:#000000;stroke-width:0.565552;stroke-linecap:butt;stroke-linejoin:round;stroke-miterlimit:10;stroke-dasharray:none;stroke-opacity:1" />
      <path
         id="path25"
         d="m 90.701544,175.94529 c 0,0.59863 -0.485069,1.0837 -1.083733,1.0837 -0.597959,0 -1.084439,-0.48507 -1.084439,-1.0837 0,-0.59873 0.48648,-1.08408 1.084439,-1.08408 0.598664,0 1.083733,0.48535 1.083733,1.08408 z"
         style="fill:none;stroke:#000000;stroke-width:0.565552;stroke-linecap:butt;stroke-linejoin:round;stroke-miterlimit:10;stroke-dasharray:none;stroke-opacity:1" />
      <path
         id="path26"
         d="m 94.85515,176.58195 c 0,0.59835 -0.485775,1.08384 -1.084086,1.08384 -0.598664,0 -1.084439,-0.48549 -1.084439,-1.08384 0,-0.59887 0.485775,-1.08479 1.084439,-1.08479 0.598311,0 1.084086,0.48592 1.084086,1.08479 z"
         style="fill:none;stroke:#000000;stroke-width:0.565552;stroke-linecap:butt;stroke-linejoin:round;stroke-miterlimit:10;stroke-dasharray:none;stroke-opacity:1" />
      <path
         id="path27"
         d="m 93.061628,180.14018 c 0,0.59862 -0.48507,1.08369 -1.084086,1.08369 -0.598664,0 -1.083734,-0.48507 -1.083734,-1.08369 0,-0.59874 0.48507,-1.08451 1.083734,-1.08451 0.599016,0 1.084086,0.48577 1.084086,1.08451 z"
         style="fill:none;stroke:#000000;stroke-width:0.565552;stroke-linecap:butt;stroke-linejoin:round;stroke-miterlimit:10;stroke-dasharray:none;stroke-opacity:1" />
      <path
         id="path28"
         d="m 100.60684,169.37082 c 0,0.59877 -0.48507,1.08409 -1.083734,1.08409 -0.597958,0 -1.083733,-0.48532 -1.083733,-1.08409 0,-0.59891 0.485775,-1.0837 1.083733,-1.0837 0.598664,0 1.083734,0.48479 1.083734,1.0837 z"
         style="fill:none;stroke:#000000;stroke-width:0.565552;stroke-linecap:butt;stroke-linejoin:round;stroke-miterlimit:10;stroke-dasharray:none;stroke-opacity:1" />
      <path
         id="path29"
         d="m 105.75175,172.90576 c 0,0.59863 -0.48507,1.0837 -1.08373,1.0837 -0.59867,0 -1.08444,-0.48507 -1.08444,-1.0837 0,-0.59902 0.48577,-1.08409 1.08444,-1.08409 0.59866,0 1.08373,0.48507 1.08373,1.08409 z"
         style="fill:none;stroke:#000000;stroke-width:0.565552;stroke-linecap:butt;stroke-linejoin:round;stroke-miterlimit:10;stroke-dasharray:none;stroke-opacity:1" />
      <path
         id="path30"
         d="m 106.5141,175.94558 c 0,0.59863 -0.48507,1.08412 -1.08408,1.08412 -0.59796,0 -1.08444,-0.48549 -1.08444,-1.08412 0,-0.59902 0.48648,-1.08409 1.08444,-1.08409 0.59901,0 1.08408,0.48507 1.08408,1.08409 z"
         style="fill:none;stroke:#000000;stroke-width:0.565552;stroke-linecap:butt;stroke-linejoin:round;stroke-miterlimit:10;stroke-dasharray:none;stroke-opacity:1" />
      <path
         id="path31"
         d="m 82.97571,138.31763 c 0,0.59866 -0.485069,1.08338 -1.083733,1.08338 -0.599017,0 -1.084086,-0.48472 -1.084086,-1.08338 0,-0.59902 0.485069,-1.08444 1.084086,-1.08444 0.598664,0 1.083733,0.48542 1.083733,1.08444 z"
         style="fill:none;stroke:#000000;stroke-width:0.565552;stroke-linecap:butt;stroke-linejoin:round;stroke-miterlimit:10;stroke-dasharray:none;stroke-opacity:1" />
      <path
         id="path32"
         d="m 84.626005,134.63321 c 0,0.59902 -0.485069,1.08444 -1.084792,1.08444 -0.597958,0 -1.083733,-0.48542 -1.083733,-1.08444 0,-0.59831 0.485775,-1.08408 1.083733,-1.08408 0.599723,0 1.084792,0.48577 1.084792,1.08408 z"
         style="fill:none;stroke:#000000;stroke-width:0.565552;stroke-linecap:butt;stroke-linejoin:round;stroke-miterlimit:10;stroke-dasharray:none;stroke-opacity:1" />
      <path
         id="path33"
         d="m 88.726341,137.25788 c 0,0.59867 -0.485069,1.08373 -1.084086,1.08373 -0.598664,0 -1.084439,-0.48506 -1.084439,-1.08373 0,-0.59831 0.485775,-1.08373 1.084439,-1.08373 0.599017,0 1.084086,0.48542 1.084086,1.08373 z"
         style="fill:none;stroke:#000000;stroke-width:0.565552;stroke-linecap:butt;stroke-linejoin:round;stroke-miterlimit:10;stroke-dasharray:none;stroke-opacity:1" />
      <path
         id="path34"
         d="m 92.590317,132.9868 c 0,0.59866 -0.48507,1.08373 -1.083381,1.08373 -0.59937,0 -1.085145,-0.48507 -1.085145,-1.08373 0,-0.59866 0.485775,-1.08409 1.085145,-1.08409 0.598311,0 1.083381,0.48543 1.083381,1.08409 z"
         style="fill:none;stroke:#000000;stroke-width:0.565552;stroke-linecap:butt;stroke-linejoin:round;stroke-miterlimit:10;stroke-dasharray:none;stroke-opacity:1" />
      <path
         id="path35"
         d="m 82.97571,121.77023 c 0,0.59902 -0.485069,1.08409 -1.083733,1.08409 -0.599017,0 -1.084086,-0.48507 -1.084086,-1.08409 0,-0.59866 0.485069,-1.08444 1.084086,-1.08444 0.598664,0 1.083733,0.48578 1.083733,1.08444 z"
         style="fill:none;stroke:#000000;stroke-width:0.565552;stroke-linecap:butt;stroke-linejoin:round;stroke-miterlimit:10;stroke-dasharray:none;stroke-opacity:1" />
      <path
         id="path36"
         d="m 87.264783,129.52781 c 0,0.59867 -0.48507,1.08409 -1.083733,1.08409 -0.598664,0 -1.083734,-0.48542 -1.083734,-1.08409 0,-0.59866 0.48507,-1.08408 1.083734,-1.08408 0.598663,0 1.083733,0.48542 1.083733,1.08408 z"
         style="fill:none;stroke:#000000;stroke-width:0.565552;stroke-linecap:butt;stroke-linejoin:round;stroke-miterlimit:10;stroke-dasharray:none;stroke-opacity:1" />
      <path
         id="path37"
         d="m 87.264783,121.15746 c 0,0.59866 -0.48507,1.08408 -1.083733,1.08408 -0.598664,0 -1.083734,-0.48542 -1.083734,-1.08408 0,-0.59832 0.48507,-1.08409 1.083734,-1.08409 0.598663,0 1.083733,0.48577 1.083733,1.08409 z"
         style="fill:none;stroke:#000000;stroke-width:0.565552;stroke-linecap:butt;stroke-linejoin:round;stroke-miterlimit:10;stroke-dasharray:none;stroke-opacity:1" />
      <path
         id="path38"
         d="m 96.266967,119.17837 c 0,0.59867 -0.48507,1.08409 -1.084086,1.08409 -0.598664,0 -1.084439,-0.48542 -1.084439,-1.08409 0,-0.59901 0.485775,-1.08408 1.084439,-1.08408 0.599016,0 1.084086,0.48507 1.084086,1.08408 z"
         style="fill:none;stroke:#000000;stroke-width:0.565552;stroke-linecap:butt;stroke-linejoin:round;stroke-miterlimit:10;stroke-dasharray:none;stroke-opacity:1" />
      <path
         id="path39"
         d="m 99.801448,120.26281 c 0,0.59831 -0.48507,1.08338 -1.083734,1.08338 -0.598664,0 -1.084439,-0.48507 -1.084439,-1.08338 0,-0.59902 0.485775,-1.08444 1.084439,-1.08444 0.598664,0 1.083734,0.48542 1.083734,1.08444 z"
         style="fill:none;stroke:#000000;stroke-width:0.565552;stroke-linecap:butt;stroke-linejoin:round;stroke-miterlimit:10;stroke-dasharray:none;stroke-opacity:1" />
      <path
         id="path40"
         d="m 105.64521,115.69046 c 0,0.59901 -0.48507,1.08373 -1.08408,1.08373 -0.59796,0 -1.08374,-0.48472 -1.08374,-1.08373 0,-0.59867 0.48578,-1.08374 1.08374,-1.08374 0.59901,0 1.08408,0.48507 1.08408,1.08374 z"
         style="fill:none;stroke:#000000;stroke-width:0.565552;stroke-linecap:butt;stroke-linejoin:round;stroke-miterlimit:10;stroke-dasharray:none;stroke-opacity:1" />
      <path
         id="path41"
         d="m 116.57921,122.57139 c 0,0.59866 -0.48507,1.08409 -1.08374,1.08409 -0.59901,0 -1.08408,-0.48543 -1.08408,-1.08409 0,-0.59831 0.48507,-1.08409 1.08408,-1.08409 0.59867,0 1.08374,0.48578 1.08374,1.08409 z"
         style="fill:none;stroke:#000000;stroke-width:0.565552;stroke-linecap:butt;stroke-linejoin:round;stroke-miterlimit:10;stroke-dasharray:none;stroke-opacity:1" />
      <path
         id="path42"
         d="m 117.52183,119.17837 c 0,0.59867 -0.48507,1.08409 -1.08409,1.08409 -0.59866,0 -1.08444,-0.48542 -1.08444,-1.08409 0,-0.59901 0.48578,-1.08408 1.08444,-1.08408 0.59902,0 1.08409,0.48507 1.08409,1.08408 z"
         style="fill:none;stroke:#000000;stroke-width:0.565552;stroke-linecap:butt;stroke-linejoin:round;stroke-miterlimit:10;stroke-dasharray:none;stroke-opacity:1" />
      <path
         id="path43"
         d="m 113.23311,124.64466 c 0,0.59902 -0.48578,1.08409 -1.08373,1.08409 -0.59867,0 -1.08444,-0.48507 -1.08444,-1.08409 0,-0.59831 0.48577,-1.08373 1.08444,-1.08373 0.59795,0 1.08373,0.48542 1.08373,1.08373 z"
         style="fill:none;stroke:#000000;stroke-width:0.565552;stroke-linecap:butt;stroke-linejoin:round;stroke-miterlimit:10;stroke-dasharray:none;stroke-opacity:1" />
      <path
         id="path44"
         d="m 125.25119,127.00157 c 0,0.59831 -0.48507,1.08409 -1.08444,1.08409 -0.59831,0 -1.08408,-0.48578 -1.08408,-1.08409 0,-0.59866 0.48577,-1.08444 1.08408,-1.08444 0.59937,0 1.08444,0.48578 1.08444,1.08444 z"
         style="fill:none;stroke:#000000;stroke-width:0.565552;stroke-linecap:butt;stroke-linejoin:round;stroke-miterlimit:10;stroke-dasharray:none;stroke-opacity:1" />
      <path
         id="path45"
         d="m 119.35945,133.84017 c 0,0.59866 -0.48507,1.08409 -1.08338,1.08409 -0.59937,0 -1.08444,-0.48543 -1.08444,-1.08409 0,-0.59866 0.48507,-1.08409 1.08444,-1.08409 0.59831,0 1.08338,0.48543 1.08338,1.08409 z"
         style="fill:none;stroke:#000000;stroke-width:0.565552;stroke-linecap:butt;stroke-linejoin:round;stroke-miterlimit:10;stroke-dasharray:none;stroke-opacity:1" />
      <path
         id="path46"
         d="m 123.06079,132.9868 c 0,0.59866 -0.48507,1.08373 -1.08444,1.08373 -0.59831,0 -1.08408,-0.48507 -1.08408,-1.08373 0,-0.59866 0.48577,-1.08409 1.08408,-1.08409 0.59937,0 1.08444,0.48543 1.08444,1.08409 z"
         style="fill:none;stroke:#000000;stroke-width:0.565552;stroke-linecap:butt;stroke-linejoin:round;stroke-miterlimit:10;stroke-dasharray:none;stroke-opacity:1" />
      <path
         id="path47"
         d="m 120.89227,136.42744 c 0,0.59867 -0.48507,1.08444 -1.08374,1.08444 -0.59795,0 -1.08443,-0.48577 -1.08443,-1.08444 0,-0.59866 0.48648,-1.08408 1.08443,-1.08408 0.59867,0 1.08374,0.48542 1.08374,1.08408 z"
         style="fill:none;stroke:#000000;stroke-width:0.565552;stroke-linecap:butt;stroke-linejoin:round;stroke-miterlimit:10;stroke-dasharray:none;stroke-opacity:1" />
      <path
         id="path48"
         d="m 121.48282,139.40101 c 0,0.59866 -0.48507,1.08408 -1.08373,1.08408 -0.59867,0 -1.08444,-0.48542 -1.08444,-1.08408 0,-0.59867 0.48577,-1.08374 1.08444,-1.08374 0.59866,0 1.08373,0.48507 1.08373,1.08374 z"
         style="fill:none;stroke:#000000;stroke-width:0.565552;stroke-linecap:butt;stroke-linejoin:round;stroke-miterlimit:10;stroke-dasharray:none;stroke-opacity:1" />
      <path
         id="path49"
         d="m 117.22408,147.40871 c 0,0.59866 -0.48506,1.08444 -1.08373,1.08444 -0.59902,0 -1.08408,-0.48578 -1.08408,-1.08444 0,-0.59866 0.48506,-1.08409 1.08408,-1.08409 0.59867,0 1.08373,0.48543 1.08373,1.08409 z"
         style="fill:none;stroke:#000000;stroke-width:0.565552;stroke-linecap:butt;stroke-linejoin:round;stroke-miterlimit:10;stroke-dasharray:none;stroke-opacity:1" />
      <path
         id="path50"
         d="m 108.76306,150.21294 c 0,0.59831 -0.48577,1.08373 -1.08408,1.08373 -0.59867,0 -1.08444,-0.48542 -1.08444,-1.08373 0,-0.59902 0.48577,-1.08479 1.08444,-1.08479 0.59831,0 1.08408,0.48577 1.08408,1.08479 z"
         style="fill:none;stroke:#000000;stroke-width:0.565552;stroke-linecap:butt;stroke-linejoin:round;stroke-miterlimit:10;stroke-dasharray:none;stroke-opacity:1" />
      <path
         id="path51"
         d="m 118.27536,154.21909 c 0,0.59866 -0.48507,1.08373 -1.08373,1.08373 -0.59866,0 -1.08444,-0.48507 -1.08444,-1.08373 0,-0.59867 0.48578,-1.08409 1.08444,-1.08409 0.59866,0 1.08373,0.48542 1.08373,1.08409 z"
         style="fill:none;stroke:#000000;stroke-width:0.565552;stroke-linecap:butt;stroke-linejoin:round;stroke-miterlimit:10;stroke-dasharray:none;stroke-opacity:1" />
      <path
         id="path52"
         d="m 113.23311,152.05091 c 0,0.59902 -0.48578,1.08409 -1.08373,1.08409 -0.59867,0 -1.08444,-0.48507 -1.08444,-1.08409 0,-0.59831 0.48577,-1.08444 1.08444,-1.08444 0.59795,0 1.08373,0.48613 1.08373,1.08444 z"
         style="fill:none;stroke:#000000;stroke-width:0.565552;stroke-linecap:butt;stroke-linejoin:round;stroke-miterlimit:10;stroke-dasharray:none;stroke-opacity:1" />
      <path
         id="path53"
         d="m 108.16687,164.42283 c 0,0.59835 -0.48578,1.08342 -1.08444,1.08342 -0.59796,0 -1.08373,-0.48507 -1.08373,-1.08342 0,-0.59902 0.48577,-1.08409 1.08373,-1.08409 0.59866,0 1.08444,0.48507 1.08444,1.08409 z"
         style="fill:none;stroke:#000000;stroke-width:0.565552;stroke-linecap:butt;stroke-linejoin:round;stroke-miterlimit:10;stroke-dasharray:none;stroke-opacity:1" />
      <path
         id="path54"
         d="m 120.63756,169.37082 c 0,0.59877 -0.48577,1.08409 -1.08479,1.08409 -0.59866,0 -1.08373,-0.48532 -1.08373,-1.08409 0,-0.59891 0.48507,-1.0837 1.08373,-1.0837 0.59902,0 1.08479,0.48479 1.08479,1.0837 z"
         style="fill:none;stroke:#000000;stroke-width:0.565552;stroke-linecap:butt;stroke-linejoin:round;stroke-miterlimit:10;stroke-dasharray:none;stroke-opacity:1" />
      <path
         id="path55"
         d="m 116.57991,170.14873 c 0,0.59874 -0.48507,1.08409 -1.08444,1.08409 -0.59831,0 -1.08408,-0.48535 -1.08408,-1.08409 0,-0.59863 0.48577,-1.0844 1.08408,-1.0844 0.59937,0 1.08444,0.48577 1.08444,1.0844 z"
         style="fill:none;stroke:#000000;stroke-width:0.565552;stroke-linecap:butt;stroke-linejoin:round;stroke-miterlimit:10;stroke-dasharray:none;stroke-opacity:1" />
      <path
         id="path56"
         d="m 112.14938,167.34454 c 0,0.59834 -0.48578,1.08369 -1.08444,1.08369 -0.59867,0 -1.08374,-0.48535 -1.08374,-1.08369 0,-0.59831 0.48507,-1.08409 1.08374,-1.08409 0.59866,0 1.08444,0.48578 1.08444,1.08409 z"
         style="fill:none;stroke:#000000;stroke-width:0.565552;stroke-linecap:butt;stroke-linejoin:round;stroke-miterlimit:10;stroke-dasharray:none;stroke-opacity:1" />
      <path
         id="path57"
         d="m 118.30852,175.94529 c 0,0.59863 -0.48507,1.0837 -1.08373,1.0837 -0.59866,0 -1.08444,-0.48507 -1.08444,-1.0837 0,-0.59873 0.48578,-1.08408 1.08444,-1.08408 0.59866,0 1.08373,0.48535 1.08373,1.08408 z"
         style="fill:none;stroke:#000000;stroke-width:0.565552;stroke-linecap:butt;stroke-linejoin:round;stroke-miterlimit:10;stroke-dasharray:none;stroke-opacity:1" />
      <path
         id="path58"
         d="m 129.47006,129.52781 h -11.19399 v 3.45899"
         style="fill:none;stroke:#000000;stroke-width:0.565552;stroke-linecap:butt;stroke-linejoin:round;stroke-miterlimit:10;stroke-dasharray:none;stroke-opacity:1" />
      <path
         id="path59"
         d="m 123.08267,132.9868 h 6.90562"
         style="fill:none;stroke:#000000;stroke-width:0.565552;stroke-linecap:butt;stroke-linejoin:round;stroke-miterlimit:10;stroke-dasharray:none;stroke-opacity:1" />
      <path
         id="path60"
         d="m 129.98829,136.42709 h -9.1186"
         style="fill:none;stroke:#000000;stroke-width:0.565552;stroke-linecap:butt;stroke-linejoin:round;stroke-miterlimit:10;stroke-dasharray:none;stroke-opacity:1" />
      <path
         id="path61"
         d="m 116.14035,146.32462 v -4.66337 h 13.02632"
         style="fill:none;stroke:#000000;stroke-width:0.565552;stroke-linecap:butt;stroke-linejoin:round;stroke-miterlimit:10;stroke-dasharray:none;stroke-opacity:1" />
      <path
         id="path62"
         d="m 121.48282,139.40101 h 7.58543"
         style="fill:none;stroke:#000000;stroke-width:0.565552;stroke-linecap:butt;stroke-linejoin:round;stroke-miterlimit:10;stroke-dasharray:none;stroke-opacity:1" />
      <path
         id="path63"
         d="m 121.45812,144.53392 c 0,0.59796 -0.48507,1.08374 -1.08373,1.08374 -0.59902,0 -1.08479,-0.48578 -1.08479,-1.08374 0,-0.59866 0.48577,-1.08444 1.08479,-1.08444 0.59866,0 1.08373,0.48578 1.08373,1.08444 z"
         style="fill:none;stroke:#000000;stroke-width:0.565552;stroke-linecap:butt;stroke-linejoin:round;stroke-miterlimit:10;stroke-dasharray:none;stroke-opacity:1" />
      <path
         id="path64"
         d="m 121.45812,144.53392 h 7.58543"
         style="fill:none;stroke:#000000;stroke-width:0.565552;stroke-linecap:butt;stroke-linejoin:round;stroke-miterlimit:10;stroke-dasharray:none;stroke-opacity:1" />
      <path
         id="path65"
         d="m 108.76306,150.21294 c 0.88794,0 23.92045,0 23.92045,0"
         style="fill:none;stroke:#000000;stroke-width:0.565552;stroke-linecap:butt;stroke-linejoin:round;stroke-miterlimit:10;stroke-dasharray:none;stroke-opacity:1" />
      <path
         id="path66"
         d="m 112.14938,153.135 v 6.69181 h 18.14477"
         style="fill:none;stroke:#000000;stroke-width:0.565552;stroke-linecap:butt;stroke-linejoin:round;stroke-miterlimit:10;stroke-dasharray:none;stroke-opacity:1" />
      <path
         id="path67"
         d="M 135.38791,154.21909 H 117.99314"
         style="fill:none;stroke:#000000;stroke-width:0.565552;stroke-linecap:butt;stroke-linejoin:round;stroke-miterlimit:10;stroke-dasharray:none;stroke-opacity:1" />
      <path
         id="path68"
         d="m 108.16687,164.42241 h 20.85446"
         style="fill:none;stroke:#000000;stroke-width:0.565552;stroke-linecap:butt;stroke-linejoin:round;stroke-miterlimit:10;stroke-dasharray:none;stroke-opacity:1" />
      <path
         id="path69"
         d="m 115.49547,169.37054 v -2.54494 h 13.6712"
         style="fill:none;stroke:#000000;stroke-width:0.565552;stroke-linecap:butt;stroke-linejoin:round;stroke-miterlimit:10;stroke-dasharray:none;stroke-opacity:1" />
      <path
         id="path70"
         d="m 128.18101,169.37054 h -7.80662"
         style="fill:none;stroke:#000000;stroke-width:0.565552;stroke-linecap:butt;stroke-linejoin:round;stroke-miterlimit:10;stroke-dasharray:none;stroke-opacity:1" />
      <path
         id="path71"
         d="m 111.06494,168.59305 v 4.73675 h 16.97672"
         style="fill:none;stroke:#000000;stroke-width:0.565552;stroke-linecap:butt;stroke-linejoin:round;stroke-miterlimit:10;stroke-dasharray:none;stroke-opacity:1" />
      <path
         id="path72"
         d="m 118.27607,175.94529 h 8.9602"
         style="fill:none;stroke:#000000;stroke-width:0.565552;stroke-linecap:butt;stroke-linejoin:round;stroke-miterlimit:10;stroke-dasharray:none;stroke-opacity:1" />
      <path
         id="path73"
         d="M 84.626005,186.94977 V 163.33874"
         style="fill:none;stroke:#000000;stroke-width:0.565552;stroke-linecap:butt;stroke-linejoin:round;stroke-miterlimit:10;stroke-dasharray:none;stroke-opacity:1" />
      <path
         id="path74"
         d="M 86.557816,186.94977 V 173.3298 h 8.046509"
         style="fill:none;stroke:#000000;stroke-width:0.565552;stroke-linecap:butt;stroke-linejoin:round;stroke-miterlimit:10;stroke-dasharray:none;stroke-opacity:1" />
      <path
         id="path75"
         d="m 89.617811,177.02899 v 9.92078"
         style="fill:none;stroke:#000000;stroke-width:0.565552;stroke-linecap:butt;stroke-linejoin:round;stroke-miterlimit:10;stroke-dasharray:none;stroke-opacity:1" />
      <path
         id="path76"
         d="m 91.977542,181.10566 v 5.84411 h 5.913261 v -10.36782 h -3.286478"
         style="fill:none;stroke:#000000;stroke-width:0.565552;stroke-linecap:butt;stroke-linejoin:round;stroke-miterlimit:10;stroke-dasharray:none;stroke-opacity:1" />
      <path
         id="path77"
         d="M 99.523106,186.94977 V 170.14845"
         style="fill:none;stroke:#000000;stroke-width:0.565552;stroke-linecap:butt;stroke-linejoin:round;stroke-miterlimit:10;stroke-dasharray:none;stroke-opacity:1" />
      <path
         id="path78"
         d="m 101.21538,186.94977 v -14.04401 h 2.45004"
         style="fill:none;stroke:#000000;stroke-width:0.565552;stroke-linecap:butt;stroke-linejoin:round;stroke-miterlimit:10;stroke-dasharray:none;stroke-opacity:1" />
      <path
         id="path79"
         d="m 105.43002,177.02899 v 9.92078"
         style="fill:none;stroke:#000000;stroke-width:0.565552;stroke-linecap:butt;stroke-linejoin:round;stroke-miterlimit:10;stroke-dasharray:none;stroke-opacity:1" />
      <path
         id="path80"
         d="m 75.169796,146.18845 h 10.539942 v 5.10822"
         style="fill:none;stroke:#000000;stroke-width:0.565552;stroke-linecap:butt;stroke-linejoin:round;stroke-miterlimit:10;stroke-dasharray:none;stroke-opacity:1" />
      <path
         id="path81"
         d="M 77.38771,154.21909 H 94.098442"
         style="fill:none;stroke:#000000;stroke-width:0.565552;stroke-linecap:butt;stroke-linejoin:round;stroke-miterlimit:10;stroke-dasharray:none;stroke-opacity:1" />
      <path
         id="path82"
         d="m 78.466152,156.73369 h 10.967156 v 6.60505"
         style="fill:none;stroke:#000000;stroke-width:0.565552;stroke-linecap:butt;stroke-linejoin:round;stroke-miterlimit:10;stroke-dasharray:none;stroke-opacity:1" />
    </g>
    <path
       style="font-size:74.0833px;line-height:1.25;font-family:'Times New Roman';-inkscape-font-specification:'Times New Roman, ';letter-spacing:0.79375px;stroke:#000000;stroke-width:0.265"
       d="m 158.92027,112.07284 h 1.30225 q 0,5.71541 -1.88102,8.3199 -1.84485,2.6045 -4.63021,2.6045 -2.27893,0 -4.37699,-1.70016 -2.09806,-1.73633 -3.76204,-9.22424 l -3.11092,-14.035309 -10.7797,24.453279 h -6.83679 L 140.3271,89.138853 q -1.2299,-6.475054 -2.96622,-9.585973 -1.73633,-3.11092 -4.30465,-3.11092 -2.06189,0 -3.61735,1.591633 -1.51928,1.55546 -1.70015,4.847247 h -1.30225 q 0.10852,-5.317502 2.13424,-8.500769 2.02571,-3.21944 5.06429,-3.21944 1.95337,0 3.68969,1.627807 1.7725,1.591633 3.03858,5.49837 1.30224,3.870563 4.01525,16.097201 l 2.56832,11.466991 q 1.55546,7.12618 3.25561,9.5498 1.73633,2.38745 4.12378,2.38745 4.05143,0 4.59403,-5.71541 z"
       id="text1-0"
       aria-label="λ" />
    <path
       style="fill:none;stroke:#000000;stroke-width:1.5;stroke-linecap:butt;stroke-linejoin:miter;stroke-dasharray:none;stroke-opacity:1"
       d="M 104.70028,50.152746 V 130.86419"
       id="path88" />
    <path
       style="fill:none;stroke:#000000;stroke-width:1.60965;stroke-linecap:butt;stroke-linejoin:miter;stroke-dasharray:none;stroke-opacity:1"
       d="M 101.21932,133.91301 44.416982,149.13315"
       id="path89" />
    <path
       style="fill:none;stroke:#000000;stroke-width:1.60965;stroke-linecap:butt;stroke-linejoin:miter;stroke-dasharray:none;stroke-opacity:1"
       d="m 108.30133,133.91301 56.80238,15.22014"
       id="path89-6" />
  </g>
</svg>
